solid OpenSCAD_Model
  facet normal -0.999697 0.0246258 0
    outer loop
      vertex -11.5 0 0
      vertex -11.4861 0.564278 20
      vertex -11.4861 0.564278 0
    endloop
  endfacet
  facet normal -0.999697 0.0246258 0
    outer loop
      vertex -11.4861 0.564278 20
      vertex -11.5 0 0
      vertex -11.5 0 20
    endloop
  endfacet
  facet normal -0.689541 0.724247 0
    outer loop
      vertex -7.72293 8.52094 0
      vertex -8.13173 8.13173 20
      vertex -7.72293 8.52094 20
    endloop
  endfacet
  facet normal -0.689541 0.724247 0
    outer loop
      vertex -8.13173 8.13173 20
      vertex -7.72293 8.52094 0
      vertex -8.13173 8.13173 0
    endloop
  endfacet
  facet normal -0.359982 0.932959 0
    outer loop
      vertex -3.87423 10.8278 0
      vertex -4.40086 10.6246 20
      vertex -3.87423 10.8278 20
    endloop
  endfacet
  facet normal -0.359982 0.932959 0
    outer loop
      vertex -4.40086 10.6246 20
      vertex -3.87423 10.8278 0
      vertex -4.40086 10.6246 0
    endloop
  endfacet
  facet normal -0.914233 0.405188 0
    outer loop
      vertex -10.6246 4.40086 0
      vertex -10.3959 4.91688 20
      vertex -10.3959 4.91688 0
    endloop
  endfacet
  facet normal -0.914233 0.405188 0
    outer loop
      vertex -10.3959 4.91688 20
      vertex -10.6246 4.40086 0
      vertex -10.6246 4.40086 20
    endloop
  endfacet
  facet normal -0.757214 0.653166 0
    outer loop
      vertex -8.88962 7.29552 0
      vertex -8.52094 7.72293 20
      vertex -8.52094 7.72293 0
    endloop
  endfacet
  facet normal -0.757214 0.653166 0
    outer loop
      vertex -8.52094 7.72293 20
      vertex -8.88962 7.29552 0
      vertex -8.88962 7.29552 20
    endloop
  endfacet
  facet normal -0.170963 0.985277 0
    outer loop
      vertex -1.6874 11.3755 0
      vertex -2.24354 11.279 20
      vertex -1.6874 11.3755 20
    endloop
  endfacet
  facet normal -0.170963 0.985277 0
    outer loop
      vertex -2.24354 11.279 20
      vertex -1.6874 11.3755 0
      vertex -2.24354 11.279 0
    endloop
  endfacet
  facet normal -0.757214 -0.653166 0
    outer loop
      vertex -8.52094 -7.72293 0
      vertex -8.88962 -7.29552 20
      vertex -8.88962 -7.29552 0
    endloop
  endfacet
  facet normal -0.757214 -0.653166 0
    outer loop
      vertex -8.88962 -7.29552 20
      vertex -8.52094 -7.72293 0
      vertex -8.52094 -7.72293 20
    endloop
  endfacet
  facet normal -0.949558 -0.31359 0
    outer loop
      vertex -10.8278 -3.87423 0
      vertex -11.0048 -3.33827 20
      vertex -11.0048 -3.33827 0
    endloop
  endfacet
  facet normal -0.949558 -0.31359 0
    outer loop
      vertex -11.0048 -3.33827 20
      vertex -10.8278 -3.87423 0
      vertex -10.8278 -3.87423 20
    endloop
  endfacet
  facet normal -0.963751 0.266803 0
    outer loop
      vertex -11.1554 2.79427 0
      vertex -11.0048 3.33827 20
      vertex -11.0048 3.33827 0
    endloop
  endfacet
  facet normal -0.963751 0.266803 0
    outer loop
      vertex -11.0048 3.33827 20
      vertex -11.1554 2.79427 0
      vertex -11.1554 2.79427 20
    endloop
  endfacet
  facet normal -0.788343 0.615236 0
    outer loop
      vertex -9.23689 6.85054 0
      vertex -8.88962 7.29552 20
      vertex -8.88962 7.29552 0
    endloop
  endfacet
  facet normal -0.788343 0.615236 0
    outer loop
      vertex -8.88962 7.29552 20
      vertex -9.23689 6.85054 0
      vertex -9.23689 6.85054 20
    endloop
  endfacet
  facet normal -0.949558 0.31359 0
    outer loop
      vertex -11.0048 3.33827 0
      vertex -10.8278 3.87423 20
      vertex -10.8278 3.87423 0
    endloop
  endfacet
  facet normal -0.949558 0.31359 0
    outer loop
      vertex -10.8278 3.87423 20
      vertex -11.0048 3.33827 0
      vertex -11.0048 3.33827 20
    endloop
  endfacet
  facet normal -0.492903 0.870084 0
    outer loop
      vertex -5.42106 10.1421 0
      vertex -5.91218 9.86388 20
      vertex -5.42106 10.1421 20
    endloop
  endfacet
  facet normal -0.492903 0.870084 0
    outer loop
      vertex -5.91218 9.86388 20
      vertex -5.42106 10.1421 0
      vertex -5.91218 9.86388 0
    endloop
  endfacet
  facet normal -0.449636 0.893212 0
    outer loop
      vertex -4.91688 10.3959 0
      vertex -5.42106 10.1421 20
      vertex -4.91688 10.3959 20
    endloop
  endfacet
  facet normal -0.449636 0.893212 0
    outer loop
      vertex -5.42106 10.1421 20
      vertex -4.91688 10.3959 0
      vertex -5.42106 10.1421 0
    endloop
  endfacet
  facet normal -0.615236 -0.788343 0
    outer loop
      vertex -7.29552 -8.88962 0
      vertex -6.85054 -9.23689 20
      vertex -7.29552 -8.88962 20
    endloop
  endfacet
  facet normal -0.615236 -0.788343 -0
    outer loop
      vertex -6.85054 -9.23689 20
      vertex -7.29552 -8.88962 0
      vertex -6.85054 -9.23689 0
    endloop
  endfacet
  facet normal -0.405188 -0.914233 0
    outer loop
      vertex -4.91688 -10.3959 0
      vertex -4.40086 -10.6246 20
      vertex -4.91688 -10.3959 20
    endloop
  endfacet
  facet normal -0.405188 -0.914233 -0
    outer loop
      vertex -4.40086 -10.6246 20
      vertex -4.91688 -10.3959 0
      vertex -4.40086 -10.6246 0
    endloop
  endfacet
  facet normal -0.170963 -0.985277 0
    outer loop
      vertex -2.24354 -11.279 0
      vertex -1.6874 -11.3755 20
      vertex -2.24354 -11.279 20
    endloop
  endfacet
  facet normal -0.170963 -0.985277 -0
    outer loop
      vertex -1.6874 -11.3755 20
      vertex -2.24354 -11.279 0
      vertex -1.6874 -11.3755 0
    endloop
  endfacet
  facet normal -0.817586 0.575807 0
    outer loop
      vertex -9.5619 6.38906 0
      vertex -9.23689 6.85054 20
      vertex -9.23689 6.85054 0
    endloop
  endfacet
  facet normal -0.817586 0.575807 0
    outer loop
      vertex -9.23689 6.85054 20
      vertex -9.5619 6.38906 0
      vertex -9.5619 6.38906 20
    endloop
  endfacet
  facet normal -0.844854 0.534996 0
    outer loop
      vertex -9.86388 5.91218 0
      vertex -9.5619 6.38906 20
      vertex -9.5619 6.38906 0
    endloop
  endfacet
  facet normal -0.844854 0.534996 0
    outer loop
      vertex -9.5619 6.38906 20
      vertex -9.86388 5.91218 0
      vertex -9.86388 5.91218 20
    endloop
  endfacet
  facet normal -0.870084 0.492903 0
    outer loop
      vertex -10.1421 5.42106 0
      vertex -9.86388 5.91218 20
      vertex -9.86388 5.91218 0
    endloop
  endfacet
  facet normal -0.870084 0.492903 0
    outer loop
      vertex -9.86388 5.91218 20
      vertex -10.1421 5.42106 0
      vertex -10.1421 5.42106 20
    endloop
  endfacet
  facet normal -0.975729 0.218982 0
    outer loop
      vertex -11.279 2.24354 0
      vertex -11.1554 2.79427 20
      vertex -11.1554 2.79427 0
    endloop
  endfacet
  facet normal -0.975729 0.218982 0
    outer loop
      vertex -11.1554 2.79427 20
      vertex -11.279 2.24354 0
      vertex -11.279 2.24354 20
    endloop
  endfacet
  facet normal -0.992478 0.122421 0
    outer loop
      vertex -11.4446 1.1272 0
      vertex -11.3755 1.6874 20
      vertex -11.3755 1.6874 0
    endloop
  endfacet
  facet normal -0.992478 0.122421 0
    outer loop
      vertex -11.3755 1.6874 20
      vertex -11.4446 1.1272 0
      vertex -11.4446 1.1272 20
    endloop
  endfacet
  facet normal -0.534996 0.844854 0
    outer loop
      vertex -5.91218 9.86388 0
      vertex -6.38906 9.5619 20
      vertex -5.91218 9.86388 20
    endloop
  endfacet
  facet normal -0.534996 0.844854 0
    outer loop
      vertex -6.38906 9.5619 20
      vertex -5.91218 9.86388 0
      vertex -6.38906 9.5619 0
    endloop
  endfacet
  facet normal -0.575807 0.817586 0
    outer loop
      vertex -6.38906 9.5619 0
      vertex -6.85054 9.23689 20
      vertex -6.38906 9.5619 20
    endloop
  endfacet
  facet normal -0.575807 0.817586 0
    outer loop
      vertex -6.85054 9.23689 20
      vertex -6.38906 9.5619 0
      vertex -6.85054 9.23689 0
    endloop
  endfacet
  facet normal -0.615236 0.788343 0
    outer loop
      vertex -6.85054 9.23689 0
      vertex -7.29552 8.88962 20
      vertex -6.85054 9.23689 20
    endloop
  endfacet
  facet normal -0.615236 0.788343 0
    outer loop
      vertex -7.29552 8.88962 20
      vertex -6.85054 9.23689 0
      vertex -7.29552 8.88962 0
    endloop
  endfacet
  facet normal -0.266803 0.963751 0
    outer loop
      vertex -2.79427 11.1554 0
      vertex -3.33827 11.0048 20
      vertex -2.79427 11.1554 20
    endloop
  endfacet
  facet normal -0.266803 0.963751 0
    outer loop
      vertex -3.33827 11.0048 20
      vertex -2.79427 11.1554 0
      vertex -3.33827 11.0048 0
    endloop
  endfacet
  facet normal -0.0246258 0.999697 0
    outer loop
      vertex 0 11.5 0
      vertex -0.564278 11.4861 20
      vertex 0 11.5 20
    endloop
  endfacet
  facet normal -0.0246258 0.999697 0
    outer loop
      vertex -0.564278 11.4861 20
      vertex 0 11.5 0
      vertex -0.564278 11.4861 0
    endloop
  endfacet
  facet normal -0.0735229 0.997294 0
    outer loop
      vertex -0.564278 11.4861 0
      vertex -1.1272 11.4446 20
      vertex -0.564278 11.4861 20
    endloop
  endfacet
  facet normal -0.0735229 0.997294 0
    outer loop
      vertex -1.1272 11.4446 20
      vertex -0.564278 11.4861 0
      vertex -1.1272 11.4446 0
    endloop
  endfacet
  facet normal -0.0735229 -0.997294 0
    outer loop
      vertex -1.1272 -11.4446 0
      vertex -0.564278 -11.4861 20
      vertex -1.1272 -11.4446 20
    endloop
  endfacet
  facet normal -0.0735229 -0.997294 -0
    outer loop
      vertex -0.564278 -11.4861 20
      vertex -1.1272 -11.4446 0
      vertex -0.564278 -11.4861 0
    endloop
  endfacet
  facet normal -0.689541 -0.724247 0
    outer loop
      vertex -8.13173 -8.13173 0
      vertex -7.72293 -8.52094 20
      vertex -8.13173 -8.13173 20
    endloop
  endfacet
  facet normal -0.689541 -0.724247 -0
    outer loop
      vertex -7.72293 -8.52094 20
      vertex -8.13173 -8.13173 0
      vertex -7.72293 -8.52094 0
    endloop
  endfacet
  facet normal -0.653166 -0.757214 0
    outer loop
      vertex -7.72293 -8.52094 0
      vertex -7.29552 -8.88962 20
      vertex -7.72293 -8.52094 20
    endloop
  endfacet
  facet normal -0.653166 -0.757214 -0
    outer loop
      vertex -7.29552 -8.88962 20
      vertex -7.72293 -8.52094 0
      vertex -7.29552 -8.88962 0
    endloop
  endfacet
  facet normal -0.534996 -0.844854 0
    outer loop
      vertex -6.38906 -9.5619 0
      vertex -5.91218 -9.86388 20
      vertex -6.38906 -9.5619 20
    endloop
  endfacet
  facet normal -0.534996 -0.844854 -0
    outer loop
      vertex -5.91218 -9.86388 20
      vertex -6.38906 -9.5619 0
      vertex -5.91218 -9.86388 0
    endloop
  endfacet
  facet normal -0.449636 -0.893212 0
    outer loop
      vertex -5.42106 -10.1421 0
      vertex -4.91688 -10.3959 20
      vertex -5.42106 -10.1421 20
    endloop
  endfacet
  facet normal -0.449636 -0.893212 -0
    outer loop
      vertex -4.91688 -10.3959 20
      vertex -5.42106 -10.1421 0
      vertex -4.91688 -10.3959 0
    endloop
  endfacet
  facet normal -0.492903 -0.870084 0
    outer loop
      vertex -5.91218 -9.86388 0
      vertex -5.42106 -10.1421 20
      vertex -5.91218 -9.86388 20
    endloop
  endfacet
  facet normal -0.492903 -0.870084 -0
    outer loop
      vertex -5.42106 -10.1421 20
      vertex -5.91218 -9.86388 0
      vertex -5.42106 -10.1421 0
    endloop
  endfacet
  facet normal -0.31359 -0.949558 0
    outer loop
      vertex -3.87423 -10.8278 0
      vertex -3.33827 -11.0048 20
      vertex -3.87423 -10.8278 20
    endloop
  endfacet
  facet normal -0.31359 -0.949558 -0
    outer loop
      vertex -3.33827 -11.0048 20
      vertex -3.87423 -10.8278 0
      vertex -3.33827 -11.0048 0
    endloop
  endfacet
  facet normal -0.359982 -0.932959 0
    outer loop
      vertex -4.40086 -10.6246 0
      vertex -3.87423 -10.8278 20
      vertex -4.40086 -10.6246 20
    endloop
  endfacet
  facet normal -0.359982 -0.932959 -0
    outer loop
      vertex -3.87423 -10.8278 20
      vertex -4.40086 -10.6246 0
      vertex -3.87423 -10.8278 0
    endloop
  endfacet
  facet normal -0.266803 -0.963751 0
    outer loop
      vertex -3.33827 -11.0048 0
      vertex -2.79427 -11.1554 20
      vertex -3.33827 -11.0048 20
    endloop
  endfacet
  facet normal -0.266803 -0.963751 -0
    outer loop
      vertex -2.79427 -11.1554 20
      vertex -3.33827 -11.0048 0
      vertex -2.79427 -11.1554 0
    endloop
  endfacet
  facet normal -0.0246258 -0.999697 0
    outer loop
      vertex -0.564278 -11.4861 0
      vertex 0 -11.5 20
      vertex -0.564278 -11.4861 20
    endloop
  endfacet
  facet normal -0.0246258 -0.999697 -0
    outer loop
      vertex 0 -11.5 20
      vertex -0.564278 -11.4861 0
      vertex 0 -11.5 0
    endloop
  endfacet
  facet normal -0.724247 -0.689541 0
    outer loop
      vertex -8.13173 -8.13173 0
      vertex -8.52094 -7.72293 20
      vertex -8.52094 -7.72293 0
    endloop
  endfacet
  facet normal -0.724247 -0.689541 0
    outer loop
      vertex -8.52094 -7.72293 20
      vertex -8.13173 -8.13173 0
      vertex -8.13173 -8.13173 20
    endloop
  endfacet
  facet normal -0.914233 -0.405188 0
    outer loop
      vertex -10.3959 -4.91688 0
      vertex -10.6246 -4.40086 20
      vertex -10.6246 -4.40086 0
    endloop
  endfacet
  facet normal -0.914233 -0.405188 0
    outer loop
      vertex -10.6246 -4.40086 20
      vertex -10.3959 -4.91688 0
      vertex -10.3959 -4.91688 20
    endloop
  endfacet
  facet normal -0.893212 -0.449636 0
    outer loop
      vertex -10.1421 -5.42106 0
      vertex -10.3959 -4.91688 20
      vertex -10.3959 -4.91688 0
    endloop
  endfacet
  facet normal -0.893212 -0.449636 0
    outer loop
      vertex -10.3959 -4.91688 20
      vertex -10.1421 -5.42106 0
      vertex -10.1421 -5.42106 20
    endloop
  endfacet
  facet normal -0.870084 -0.492903 0
    outer loop
      vertex -9.86388 -5.91218 0
      vertex -10.1421 -5.42106 20
      vertex -10.1421 -5.42106 0
    endloop
  endfacet
  facet normal -0.870084 -0.492903 0
    outer loop
      vertex -10.1421 -5.42106 20
      vertex -9.86388 -5.91218 0
      vertex -9.86388 -5.91218 20
    endloop
  endfacet
  facet normal -0.817586 -0.575807 0
    outer loop
      vertex -9.23689 -6.85054 0
      vertex -9.5619 -6.38906 20
      vertex -9.5619 -6.38906 0
    endloop
  endfacet
  facet normal -0.817586 -0.575807 0
    outer loop
      vertex -9.5619 -6.38906 20
      vertex -9.23689 -6.85054 0
      vertex -9.23689 -6.85054 20
    endloop
  endfacet
  facet normal -0.932959 -0.359982 0
    outer loop
      vertex -10.6246 -4.40086 0
      vertex -10.8278 -3.87423 20
      vertex -10.8278 -3.87423 0
    endloop
  endfacet
  facet normal -0.932959 -0.359982 0
    outer loop
      vertex -10.8278 -3.87423 20
      vertex -10.6246 -4.40086 0
      vertex -10.6246 -4.40086 20
    endloop
  endfacet
  facet normal -0.975729 -0.218982 0
    outer loop
      vertex -11.1554 -2.79427 0
      vertex -11.279 -2.24354 20
      vertex -11.279 -2.24354 0
    endloop
  endfacet
  facet normal -0.975729 -0.218982 0
    outer loop
      vertex -11.279 -2.24354 20
      vertex -11.1554 -2.79427 0
      vertex -11.1554 -2.79427 20
    endloop
  endfacet
  facet normal -0.992478 -0.122421 0
    outer loop
      vertex -11.3755 -1.6874 0
      vertex -11.4446 -1.1272 20
      vertex -11.4446 -1.1272 0
    endloop
  endfacet
  facet normal -0.992478 -0.122421 0
    outer loop
      vertex -11.4446 -1.1272 20
      vertex -11.3755 -1.6874 0
      vertex -11.3755 -1.6874 20
    endloop
  endfacet
  facet normal -0.999697 -0.0246258 0
    outer loop
      vertex -11.4861 -0.564278 0
      vertex -11.5 0 20
      vertex -11.5 0 0
    endloop
  endfacet
  facet normal -0.999697 -0.0246258 0
    outer loop
      vertex -11.5 0 20
      vertex -11.4861 -0.564278 0
      vertex -11.4861 -0.564278 20
    endloop
  endfacet
  facet normal 0 0 -1
    outer loop
      vertex 0 -11.5 0
      vertex 11.5 11.5 0
      vertex 11.5 -11.5 0
    endloop
  endfacet
  facet normal 0 0 -1
    outer loop
      vertex 0 -11.5 0
      vertex 0 11.5 0
      vertex 11.5 11.5 0
    endloop
  endfacet
  facet normal 0 0 -1
    outer loop
      vertex -0.564278 -11.4861 0
      vertex 0 11.5 0
      vertex 0 -11.5 0
    endloop
  endfacet
  facet normal 0 0 -1
    outer loop
      vertex -0.564278 -11.4861 0
      vertex -0.564278 11.4861 0
      vertex 0 11.5 0
    endloop
  endfacet
  facet normal 0 0 -1
    outer loop
      vertex -1.1272 -11.4446 0
      vertex -0.564278 11.4861 0
      vertex -0.564278 -11.4861 0
    endloop
  endfacet
  facet normal 0 0 -1
    outer loop
      vertex -1.1272 -11.4446 0
      vertex -1.1272 11.4446 0
      vertex -0.564278 11.4861 0
    endloop
  endfacet
  facet normal 0 0 -1
    outer loop
      vertex -1.6874 -11.3755 0
      vertex -1.1272 11.4446 0
      vertex -1.1272 -11.4446 0
    endloop
  endfacet
  facet normal 0 0 -1
    outer loop
      vertex -1.6874 -11.3755 0
      vertex -1.6874 11.3755 0
      vertex -1.1272 11.4446 0
    endloop
  endfacet
  facet normal 0 0 -1
    outer loop
      vertex -2.24354 -11.279 0
      vertex -1.6874 11.3755 0
      vertex -1.6874 -11.3755 0
    endloop
  endfacet
  facet normal 0 0 -1
    outer loop
      vertex -2.24354 -11.279 0
      vertex -2.24354 11.279 0
      vertex -1.6874 11.3755 0
    endloop
  endfacet
  facet normal 0 0 -1
    outer loop
      vertex -2.79427 -11.1554 0
      vertex -2.24354 11.279 0
      vertex -2.24354 -11.279 0
    endloop
  endfacet
  facet normal 0 0 -1
    outer loop
      vertex -2.79427 -11.1554 0
      vertex -2.79427 11.1554 0
      vertex -2.24354 11.279 0
    endloop
  endfacet
  facet normal 0 0 -1
    outer loop
      vertex -3.33827 -11.0048 0
      vertex -2.79427 11.1554 0
      vertex -2.79427 -11.1554 0
    endloop
  endfacet
  facet normal 0 0 -1
    outer loop
      vertex -3.33827 -11.0048 0
      vertex -3.33827 11.0048 0
      vertex -2.79427 11.1554 0
    endloop
  endfacet
  facet normal 0 0 -1
    outer loop
      vertex -3.87423 -10.8278 0
      vertex -3.33827 11.0048 0
      vertex -3.33827 -11.0048 0
    endloop
  endfacet
  facet normal 0 0 -1
    outer loop
      vertex -3.87423 -10.8278 0
      vertex -3.87423 10.8278 0
      vertex -3.33827 11.0048 0
    endloop
  endfacet
  facet normal 0 0 -1
    outer loop
      vertex -4.40086 -10.6246 0
      vertex -3.87423 10.8278 0
      vertex -3.87423 -10.8278 0
    endloop
  endfacet
  facet normal 0 0 -1
    outer loop
      vertex -4.40086 -10.6246 0
      vertex -4.40086 10.6246 0
      vertex -3.87423 10.8278 0
    endloop
  endfacet
  facet normal 0 0 -1
    outer loop
      vertex -4.91688 -10.3959 0
      vertex -4.40086 10.6246 0
      vertex -4.40086 -10.6246 0
    endloop
  endfacet
  facet normal 0 0 -1
    outer loop
      vertex -4.91688 -10.3959 0
      vertex -4.91688 10.3959 0
      vertex -4.40086 10.6246 0
    endloop
  endfacet
  facet normal 0 0 -1
    outer loop
      vertex -5.42106 -10.1421 0
      vertex -4.91688 10.3959 0
      vertex -4.91688 -10.3959 0
    endloop
  endfacet
  facet normal 0 0 -1
    outer loop
      vertex -5.42106 -10.1421 0
      vertex -5.42106 10.1421 0
      vertex -4.91688 10.3959 0
    endloop
  endfacet
  facet normal 0 0 -1
    outer loop
      vertex -5.91218 -9.86388 0
      vertex -5.42106 10.1421 0
      vertex -5.42106 -10.1421 0
    endloop
  endfacet
  facet normal 0 0 -1
    outer loop
      vertex -5.91218 -9.86388 0
      vertex -5.91218 9.86388 0
      vertex -5.42106 10.1421 0
    endloop
  endfacet
  facet normal 0 0 -1
    outer loop
      vertex -6.38906 -9.5619 0
      vertex -5.91218 9.86388 0
      vertex -5.91218 -9.86388 0
    endloop
  endfacet
  facet normal 0 0 -1
    outer loop
      vertex -6.38906 -9.5619 0
      vertex -6.38906 9.5619 0
      vertex -5.91218 9.86388 0
    endloop
  endfacet
  facet normal 0 0 -1
    outer loop
      vertex -6.85054 -9.23689 0
      vertex -6.38906 9.5619 0
      vertex -6.38906 -9.5619 0
    endloop
  endfacet
  facet normal 0 0 -1
    outer loop
      vertex -6.85054 -9.23689 0
      vertex -6.85054 9.23689 0
      vertex -6.38906 9.5619 0
    endloop
  endfacet
  facet normal 0 0 -1
    outer loop
      vertex -7.29552 -8.88962 0
      vertex -6.85054 9.23689 0
      vertex -6.85054 -9.23689 0
    endloop
  endfacet
  facet normal 0 0 -1
    outer loop
      vertex -7.29552 -8.88962 0
      vertex -7.29552 8.88962 0
      vertex -6.85054 9.23689 0
    endloop
  endfacet
  facet normal 0 0 -1
    outer loop
      vertex -7.72293 -8.52094 0
      vertex -7.29552 8.88962 0
      vertex -7.29552 -8.88962 0
    endloop
  endfacet
  facet normal 0 0 -1
    outer loop
      vertex -7.72293 -8.52094 0
      vertex -7.72293 8.52094 0
      vertex -7.29552 8.88962 0
    endloop
  endfacet
  facet normal 0 0 -1
    outer loop
      vertex -8.13173 -8.13173 0
      vertex -7.72293 8.52094 0
      vertex -7.72293 -8.52094 0
    endloop
  endfacet
  facet normal 0 0 -1
    outer loop
      vertex -8.13173 -8.13173 0
      vertex -8.13173 8.13173 0
      vertex -7.72293 8.52094 0
    endloop
  endfacet
  facet normal 0 0 -1
    outer loop
      vertex -8.52094 -7.72293 0
      vertex -8.13173 8.13173 0
      vertex -8.13173 -8.13173 0
    endloop
  endfacet
  facet normal 0 0 -1
    outer loop
      vertex -8.52094 -7.72293 0
      vertex -8.52094 7.72293 0
      vertex -8.13173 8.13173 0
    endloop
  endfacet
  facet normal 0 0 -1
    outer loop
      vertex -8.88962 -7.29552 0
      vertex -8.52094 7.72293 0
      vertex -8.52094 -7.72293 0
    endloop
  endfacet
  facet normal 0 0 -1
    outer loop
      vertex -8.88962 -7.29552 0
      vertex -8.88962 7.29552 0
      vertex -8.52094 7.72293 0
    endloop
  endfacet
  facet normal 0 0 -1
    outer loop
      vertex -9.23689 -6.85054 0
      vertex -8.88962 7.29552 0
      vertex -8.88962 -7.29552 0
    endloop
  endfacet
  facet normal 0 0 -1
    outer loop
      vertex -9.23689 -6.85054 0
      vertex -9.23689 6.85054 0
      vertex -8.88962 7.29552 0
    endloop
  endfacet
  facet normal 0 0 -1
    outer loop
      vertex -9.5619 -6.38906 0
      vertex -9.23689 6.85054 0
      vertex -9.23689 -6.85054 0
    endloop
  endfacet
  facet normal 0 0 -1
    outer loop
      vertex -9.5619 -6.38906 0
      vertex -9.5619 6.38906 0
      vertex -9.23689 6.85054 0
    endloop
  endfacet
  facet normal 0 0 -1
    outer loop
      vertex -9.86388 -5.91218 0
      vertex -9.5619 6.38906 0
      vertex -9.5619 -6.38906 0
    endloop
  endfacet
  facet normal 0 0 -1
    outer loop
      vertex -9.86388 -5.91218 0
      vertex -9.86388 5.91218 0
      vertex -9.5619 6.38906 0
    endloop
  endfacet
  facet normal 0 0 -1
    outer loop
      vertex -10.1421 -5.42106 0
      vertex -9.86388 5.91218 0
      vertex -9.86388 -5.91218 0
    endloop
  endfacet
  facet normal 0 0 -1
    outer loop
      vertex -10.1421 -5.42106 0
      vertex -10.1421 5.42106 0
      vertex -9.86388 5.91218 0
    endloop
  endfacet
  facet normal 0 0 -1
    outer loop
      vertex -10.3959 -4.91688 0
      vertex -10.1421 5.42106 0
      vertex -10.1421 -5.42106 0
    endloop
  endfacet
  facet normal 0 0 -1
    outer loop
      vertex -10.3959 -4.91688 0
      vertex -10.3959 4.91688 0
      vertex -10.1421 5.42106 0
    endloop
  endfacet
  facet normal 0 0 -1
    outer loop
      vertex -10.6246 -4.40086 0
      vertex -10.3959 4.91688 0
      vertex -10.3959 -4.91688 0
    endloop
  endfacet
  facet normal 0 0 -1
    outer loop
      vertex -10.6246 -4.40086 0
      vertex -10.6246 4.40086 0
      vertex -10.3959 4.91688 0
    endloop
  endfacet
  facet normal 0 0 -1
    outer loop
      vertex -10.8278 -3.87423 0
      vertex -10.6246 4.40086 0
      vertex -10.6246 -4.40086 0
    endloop
  endfacet
  facet normal 0 0 -1
    outer loop
      vertex -10.8278 -3.87423 0
      vertex -10.8278 3.87423 0
      vertex -10.6246 4.40086 0
    endloop
  endfacet
  facet normal 0 0 -1
    outer loop
      vertex -11.0048 -3.33827 0
      vertex -10.8278 3.87423 0
      vertex -10.8278 -3.87423 0
    endloop
  endfacet
  facet normal 0 0 -1
    outer loop
      vertex -11.0048 -3.33827 0
      vertex -11.0048 3.33827 0
      vertex -10.8278 3.87423 0
    endloop
  endfacet
  facet normal 0 0 -1
    outer loop
      vertex -11.1554 -2.79427 0
      vertex -11.0048 3.33827 0
      vertex -11.0048 -3.33827 0
    endloop
  endfacet
  facet normal 0 0 -1
    outer loop
      vertex -11.1554 -2.79427 0
      vertex -11.1554 2.79427 0
      vertex -11.0048 3.33827 0
    endloop
  endfacet
  facet normal 0 0 -1
    outer loop
      vertex -11.279 -2.24354 0
      vertex -11.1554 2.79427 0
      vertex -11.1554 -2.79427 0
    endloop
  endfacet
  facet normal 0 0 -1
    outer loop
      vertex -11.279 -2.24354 0
      vertex -11.279 2.24354 0
      vertex -11.1554 2.79427 0
    endloop
  endfacet
  facet normal 0 0 -1
    outer loop
      vertex -11.3755 -1.6874 0
      vertex -11.279 2.24354 0
      vertex -11.279 -2.24354 0
    endloop
  endfacet
  facet normal 0 0 -1
    outer loop
      vertex -11.3755 -1.6874 0
      vertex -11.3755 1.6874 0
      vertex -11.279 2.24354 0
    endloop
  endfacet
  facet normal 0 0 -1
    outer loop
      vertex -11.4446 -1.1272 0
      vertex -11.3755 1.6874 0
      vertex -11.3755 -1.6874 0
    endloop
  endfacet
  facet normal 0 0 -1
    outer loop
      vertex -11.4446 -1.1272 0
      vertex -11.4446 1.1272 0
      vertex -11.3755 1.6874 0
    endloop
  endfacet
  facet normal 0 0 -1
    outer loop
      vertex -11.4861 -0.564278 0
      vertex -11.4446 1.1272 0
      vertex -11.4446 -1.1272 0
    endloop
  endfacet
  facet normal 0 0 -1
    outer loop
      vertex -11.4861 -0.564278 0
      vertex -11.4861 0.564278 0
      vertex -11.4446 1.1272 0
    endloop
  endfacet
  facet normal 0 -0 -1
    outer loop
      vertex -11.4861 0.564278 0
      vertex -11.4861 -0.564278 0
      vertex -11.5 0 0
    endloop
  endfacet
  facet normal -0.985277 -0.170963 0
    outer loop
      vertex -11.279 -2.24354 0
      vertex -11.3755 -1.6874 20
      vertex -11.3755 -1.6874 0
    endloop
  endfacet
  facet normal -0.985277 -0.170963 0
    outer loop
      vertex -11.3755 -1.6874 20
      vertex -11.279 -2.24354 0
      vertex -11.279 -2.24354 20
    endloop
  endfacet
  facet normal -0.724247 0.689541 0
    outer loop
      vertex -8.52094 7.72293 0
      vertex -8.13173 8.13173 20
      vertex -8.13173 8.13173 0
    endloop
  endfacet
  facet normal -0.724247 0.689541 0
    outer loop
      vertex -8.13173 8.13173 20
      vertex -8.52094 7.72293 0
      vertex -8.52094 7.72293 20
    endloop
  endfacet
  facet normal -0.893212 0.449636 0
    outer loop
      vertex -10.3959 4.91688 0
      vertex -10.1421 5.42106 20
      vertex -10.1421 5.42106 0
    endloop
  endfacet
  facet normal -0.893212 0.449636 0
    outer loop
      vertex -10.1421 5.42106 20
      vertex -10.3959 4.91688 0
      vertex -10.3959 4.91688 20
    endloop
  endfacet
  facet normal -0.932959 0.359982 0
    outer loop
      vertex -10.8278 3.87423 0
      vertex -10.6246 4.40086 20
      vertex -10.6246 4.40086 0
    endloop
  endfacet
  facet normal -0.932959 0.359982 0
    outer loop
      vertex -10.6246 4.40086 20
      vertex -10.8278 3.87423 0
      vertex -10.8278 3.87423 20
    endloop
  endfacet
  facet normal -0 0 1
    outer loop
      vertex 0 11.5 20
      vertex 11.5 6.5 20
      vertex 11.5 11.5 20
    endloop
  endfacet
  facet normal 0 0 1
    outer loop
      vertex 0 11.5 20
      vertex 0 6.5 20
      vertex 11.5 6.5 20
    endloop
  endfacet
  facet normal 0 0 1
    outer loop
      vertex 0 11.5 20
      vertex -0.318939 6.49217 20
      vertex 0 6.5 20
    endloop
  endfacet
  facet normal -0 0 1
    outer loop
      vertex -0.564278 11.4861 20
      vertex -0.318939 6.49217 20
      vertex 0 11.5 20
    endloop
  endfacet
  facet normal 0 0 1
    outer loop
      vertex -0.564278 11.4861 20
      vertex -0.637111 6.4687 20
      vertex -0.318939 6.49217 20
    endloop
  endfacet
  facet normal -0 0 1
    outer loop
      vertex -1.1272 11.4446 20
      vertex -0.637111 6.4687 20
      vertex -0.564278 11.4861 20
    endloop
  endfacet
  facet normal 0 0 1
    outer loop
      vertex -0.637111 6.4687 20
      vertex -1.1272 11.4446 20
      vertex -0.953748 6.42965 20
    endloop
  endfacet
  facet normal -0 0 1
    outer loop
      vertex -1.6874 11.3755 20
      vertex -0.953748 6.42965 20
      vertex -1.1272 11.4446 20
    endloop
  endfacet
  facet normal 0 0 1
    outer loop
      vertex -0.953748 6.42965 20
      vertex -1.6874 11.3755 20
      vertex -1.26809 6.3751 20
    endloop
  endfacet
  facet normal -0 0 1
    outer loop
      vertex -2.24354 11.279 20
      vertex -1.26809 6.3751 20
      vertex -1.6874 11.3755 20
    endloop
  endfacet
  facet normal 0 0 1
    outer loop
      vertex -1.26809 6.3751 20
      vertex -2.24354 11.279 20
      vertex -1.57937 6.3052 20
    endloop
  endfacet
  facet normal -0 0 1
    outer loop
      vertex -2.79427 11.1554 20
      vertex -1.57937 6.3052 20
      vertex -2.24354 11.279 20
    endloop
  endfacet
  facet normal 0 0 1
    outer loop
      vertex -1.57937 6.3052 20
      vertex -2.79427 11.1554 20
      vertex -1.88685 6.22011 20
    endloop
  endfacet
  facet normal -0 0 1
    outer loop
      vertex -3.33827 11.0048 20
      vertex -1.88685 6.22011 20
      vertex -2.79427 11.1554 20
    endloop
  endfacet
  facet normal 0 0 1
    outer loop
      vertex -1.88685 6.22011 20
      vertex -3.33827 11.0048 20
      vertex -2.18978 6.12004 20
    endloop
  endfacet
  facet normal -0 0 1
    outer loop
      vertex -3.87423 10.8278 20
      vertex -2.18978 6.12004 20
      vertex -3.33827 11.0048 20
    endloop
  endfacet
  facet normal 0 0 1
    outer loop
      vertex -2.18978 6.12004 20
      vertex -3.87423 10.8278 20
      vertex -2.48744 6.00522 20
    endloop
  endfacet
  facet normal -0 0 1
    outer loop
      vertex -4.40086 10.6246 20
      vertex -2.48744 6.00522 20
      vertex -3.87423 10.8278 20
    endloop
  endfacet
  facet normal 0 0 1
    outer loop
      vertex -2.48744 6.00522 20
      vertex -4.40086 10.6246 20
      vertex -2.77911 5.87593 20
    endloop
  endfacet
  facet normal -0 0 1
    outer loop
      vertex -4.91688 10.3959 20
      vertex -2.77911 5.87593 20
      vertex -4.40086 10.6246 20
    endloop
  endfacet
  facet normal 0 0 1
    outer loop
      vertex -2.77911 5.87593 20
      vertex -4.91688 10.3959 20
      vertex -3.06408 5.73249 20
    endloop
  endfacet
  facet normal -0 0 1
    outer loop
      vertex -5.42106 10.1421 20
      vertex -3.06408 5.73249 20
      vertex -4.91688 10.3959 20
    endloop
  endfacet
  facet normal 0 0 1
    outer loop
      vertex -3.06408 5.73249 20
      vertex -5.42106 10.1421 20
      vertex -3.34167 5.57524 20
    endloop
  endfacet
  facet normal -0 0 1
    outer loop
      vertex -5.91218 9.86388 20
      vertex -3.34167 5.57524 20
      vertex -5.42106 10.1421 20
    endloop
  endfacet
  facet normal 0 0 1
    outer loop
      vertex -3.34167 5.57524 20
      vertex -5.91218 9.86388 20
      vertex -3.61121 5.40455 20
    endloop
  endfacet
  facet normal -0 0 1
    outer loop
      vertex -6.38906 9.5619 20
      vertex -3.61121 5.40455 20
      vertex -5.91218 9.86388 20
    endloop
  endfacet
  facet normal 0 0 1
    outer loop
      vertex -3.61121 5.40455 20
      vertex -6.38906 9.5619 20
      vertex -3.87204 5.22085 20
    endloop
  endfacet
  facet normal -0 0 1
    outer loop
      vertex -6.85054 9.23689 20
      vertex -3.87204 5.22085 20
      vertex -6.38906 9.5619 20
    endloop
  endfacet
  facet normal 0 0 1
    outer loop
      vertex -3.87204 5.22085 20
      vertex -6.85054 9.23689 20
      vertex -4.12356 5.02457 20
    endloop
  endfacet
  facet normal -0 0 1
    outer loop
      vertex -7.29552 8.88962 20
      vertex -4.12356 5.02457 20
      vertex -6.85054 9.23689 20
    endloop
  endfacet
  facet normal 0 0 1
    outer loop
      vertex -4.12356 5.02457 20
      vertex -7.29552 8.88962 20
      vertex -4.36513 4.81618 20
    endloop
  endfacet
  facet normal -0 0 1
    outer loop
      vertex -7.72293 8.52094 20
      vertex -4.36513 4.81618 20
      vertex -7.29552 8.88962 20
    endloop
  endfacet
  facet normal 0 0 1
    outer loop
      vertex -4.36513 4.81618 20
      vertex -7.72293 8.52094 20
      vertex -4.59619 4.59619 20
    endloop
  endfacet
  facet normal -0 0 1
    outer loop
      vertex -8.13173 8.13173 20
      vertex -4.59619 4.59619 20
      vertex -7.72293 8.52094 20
    endloop
  endfacet
  facet normal 0 0 1
    outer loop
      vertex -4.59619 4.59619 20
      vertex -8.13173 8.13173 20
      vertex -4.81618 4.36513 20
    endloop
  endfacet
  facet normal -0 0 1
    outer loop
      vertex -8.52094 7.72293 20
      vertex -4.81618 4.36513 20
      vertex -8.13173 8.13173 20
    endloop
  endfacet
  facet normal 0 0 1
    outer loop
      vertex -4.81618 4.36513 20
      vertex -8.52094 7.72293 20
      vertex -5.02457 4.12356 20
    endloop
  endfacet
  facet normal -0 0 1
    outer loop
      vertex -8.88962 7.29552 20
      vertex -5.02457 4.12356 20
      vertex -8.52094 7.72293 20
    endloop
  endfacet
  facet normal 0 0 1
    outer loop
      vertex -5.02457 4.12356 20
      vertex -8.88962 7.29552 20
      vertex -5.22085 3.87204 20
    endloop
  endfacet
  facet normal -0 0 1
    outer loop
      vertex -9.23689 6.85054 20
      vertex -5.22085 3.87204 20
      vertex -8.88962 7.29552 20
    endloop
  endfacet
  facet normal 0 0 1
    outer loop
      vertex -5.22085 3.87204 20
      vertex -9.23689 6.85054 20
      vertex -5.40455 3.61121 20
    endloop
  endfacet
  facet normal -0 0 1
    outer loop
      vertex -9.5619 6.38906 20
      vertex -5.40455 3.61121 20
      vertex -9.23689 6.85054 20
    endloop
  endfacet
  facet normal 0 0 1
    outer loop
      vertex -5.40455 3.61121 20
      vertex -9.5619 6.38906 20
      vertex -5.57524 3.34167 20
    endloop
  endfacet
  facet normal -0 0 1
    outer loop
      vertex -9.86388 5.91218 20
      vertex -5.57524 3.34167 20
      vertex -9.5619 6.38906 20
    endloop
  endfacet
  facet normal 0 0 1
    outer loop
      vertex -5.57524 3.34167 20
      vertex -9.86388 5.91218 20
      vertex -5.73249 3.06408 20
    endloop
  endfacet
  facet normal -0 0 1
    outer loop
      vertex -10.1421 5.42106 20
      vertex -5.73249 3.06408 20
      vertex -9.86388 5.91218 20
    endloop
  endfacet
  facet normal 0 0 1
    outer loop
      vertex -5.73249 3.06408 20
      vertex -10.1421 5.42106 20
      vertex -5.87593 2.77911 20
    endloop
  endfacet
  facet normal -0 0 1
    outer loop
      vertex 0 -6.5 20
      vertex 11.5 -11.5 20
      vertex 11.5 -6.5 20
    endloop
  endfacet
  facet normal 0 0 1
    outer loop
      vertex 0 -6.5 20
      vertex 0 -11.5 20
      vertex 11.5 -11.5 20
    endloop
  endfacet
  facet normal 0 0 1
    outer loop
      vertex -0.318939 -6.49217 20
      vertex 0 -11.5 20
      vertex 0 -6.5 20
    endloop
  endfacet
  facet normal 0 0 1
    outer loop
      vertex -0.318939 -6.49217 20
      vertex -0.564278 -11.4861 20
      vertex 0 -11.5 20
    endloop
  endfacet
  facet normal 0 0 1
    outer loop
      vertex -0.637111 -6.4687 20
      vertex -0.564278 -11.4861 20
      vertex -0.318939 -6.49217 20
    endloop
  endfacet
  facet normal 0 0 1
    outer loop
      vertex -1.1272 -11.4446 20
      vertex -0.637111 -6.4687 20
      vertex -0.953748 -6.42965 20
    endloop
  endfacet
  facet normal 0 0 1
    outer loop
      vertex -0.637111 -6.4687 20
      vertex -1.1272 -11.4446 20
      vertex -0.564278 -11.4861 20
    endloop
  endfacet
  facet normal 0 0 1
    outer loop
      vertex -1.6874 -11.3755 20
      vertex -0.953748 -6.42965 20
      vertex -1.26809 -6.3751 20
    endloop
  endfacet
  facet normal 0 0 1
    outer loop
      vertex -2.24354 -11.279 20
      vertex -1.26809 -6.3751 20
      vertex -1.57937 -6.3052 20
    endloop
  endfacet
  facet normal 0 0 1
    outer loop
      vertex -0.953748 -6.42965 20
      vertex -1.6874 -11.3755 20
      vertex -1.1272 -11.4446 20
    endloop
  endfacet
  facet normal 0 0 1
    outer loop
      vertex -2.79427 -11.1554 20
      vertex -1.57937 -6.3052 20
      vertex -1.88685 -6.22011 20
    endloop
  endfacet
  facet normal 0 0 1
    outer loop
      vertex -3.33827 -11.0048 20
      vertex -1.88685 -6.22011 20
      vertex -2.18978 -6.12004 20
    endloop
  endfacet
  facet normal 0 0 1
    outer loop
      vertex -1.26809 -6.3751 20
      vertex -2.24354 -11.279 20
      vertex -1.6874 -11.3755 20
    endloop
  endfacet
  facet normal 0 0 1
    outer loop
      vertex -3.87423 -10.8278 20
      vertex -2.18978 -6.12004 20
      vertex -2.48744 -6.00522 20
    endloop
  endfacet
  facet normal 0 0 1
    outer loop
      vertex -4.40086 -10.6246 20
      vertex -2.48744 -6.00522 20
      vertex -2.77911 -5.87593 20
    endloop
  endfacet
  facet normal 0 0 1
    outer loop
      vertex -1.57937 -6.3052 20
      vertex -2.79427 -11.1554 20
      vertex -2.24354 -11.279 20
    endloop
  endfacet
  facet normal 0 0 1
    outer loop
      vertex -4.91688 -10.3959 20
      vertex -2.77911 -5.87593 20
      vertex -3.06408 -5.73249 20
    endloop
  endfacet
  facet normal 0 0 1
    outer loop
      vertex -1.88685 -6.22011 20
      vertex -3.33827 -11.0048 20
      vertex -2.79427 -11.1554 20
    endloop
  endfacet
  facet normal 0 0 1
    outer loop
      vertex -5.42106 -10.1421 20
      vertex -3.06408 -5.73249 20
      vertex -3.34167 -5.57524 20
    endloop
  endfacet
  facet normal 0 0 1
    outer loop
      vertex -5.91218 -9.86388 20
      vertex -3.34167 -5.57524 20
      vertex -3.61121 -5.40455 20
    endloop
  endfacet
  facet normal 0 0 1
    outer loop
      vertex -6.38906 -9.5619 20
      vertex -3.61121 -5.40455 20
      vertex -3.87204 -5.22085 20
    endloop
  endfacet
  facet normal 0 0 1
    outer loop
      vertex -2.18978 -6.12004 20
      vertex -3.87423 -10.8278 20
      vertex -3.33827 -11.0048 20
    endloop
  endfacet
  facet normal 0 0 1
    outer loop
      vertex -6.85054 -9.23689 20
      vertex -3.87204 -5.22085 20
      vertex -4.12356 -5.02457 20
    endloop
  endfacet
  facet normal 0 0 1
    outer loop
      vertex -7.29552 -8.88962 20
      vertex -4.12356 -5.02457 20
      vertex -4.36513 -4.81618 20
    endloop
  endfacet
  facet normal 0 0 1
    outer loop
      vertex -2.48744 -6.00522 20
      vertex -4.40086 -10.6246 20
      vertex -3.87423 -10.8278 20
    endloop
  endfacet
  facet normal 0 0 1
    outer loop
      vertex -7.72293 -8.52094 20
      vertex -4.36513 -4.81618 20
      vertex -4.59619 -4.59619 20
    endloop
  endfacet
  facet normal 0 0 1
    outer loop
      vertex -8.13173 -8.13173 20
      vertex -4.59619 -4.59619 20
      vertex -4.81618 -4.36513 20
    endloop
  endfacet
  facet normal 0 0 1
    outer loop
      vertex -2.77911 -5.87593 20
      vertex -4.91688 -10.3959 20
      vertex -4.40086 -10.6246 20
    endloop
  endfacet
  facet normal 0 0 1
    outer loop
      vertex -8.52094 -7.72293 20
      vertex -4.81618 -4.36513 20
      vertex -5.02457 -4.12356 20
    endloop
  endfacet
  facet normal 0 0 1
    outer loop
      vertex -8.88962 -7.29552 20
      vertex -5.02457 -4.12356 20
      vertex -5.22085 -3.87204 20
    endloop
  endfacet
  facet normal 0 0 1
    outer loop
      vertex -9.23689 -6.85054 20
      vertex -5.22085 -3.87204 20
      vertex -5.40455 -3.61121 20
    endloop
  endfacet
  facet normal 0 0 1
    outer loop
      vertex -3.06408 -5.73249 20
      vertex -5.42106 -10.1421 20
      vertex -4.91688 -10.3959 20
    endloop
  endfacet
  facet normal 0 0 1
    outer loop
      vertex -9.5619 -6.38906 20
      vertex -5.40455 -3.61121 20
      vertex -5.57524 -3.34167 20
    endloop
  endfacet
  facet normal 0 0 1
    outer loop
      vertex -9.86388 -5.91218 20
      vertex -5.57524 -3.34167 20
      vertex -5.73249 -3.06408 20
    endloop
  endfacet
  facet normal 0 0 1
    outer loop
      vertex -10.1421 -5.42106 20
      vertex -5.73249 -3.06408 20
      vertex -5.87593 -2.77911 20
    endloop
  endfacet
  facet normal 0 0 1
    outer loop
      vertex -3.34167 -5.57524 20
      vertex -5.91218 -9.86388 20
      vertex -5.42106 -10.1421 20
    endloop
  endfacet
  facet normal 0 0 1
    outer loop
      vertex -10.3959 -4.91688 20
      vertex -5.87593 -2.77911 20
      vertex -6.00522 -2.48744 20
    endloop
  endfacet
  facet normal 0 0 1
    outer loop
      vertex -10.6246 -4.40086 20
      vertex -6.00522 -2.48744 20
      vertex -6.12004 -2.18978 20
    endloop
  endfacet
  facet normal 0 0 1
    outer loop
      vertex -10.8278 -3.87423 20
      vertex -6.12004 -2.18978 20
      vertex -6.22011 -1.88685 20
    endloop
  endfacet
  facet normal 0 0 1
    outer loop
      vertex -11.0048 -3.33827 20
      vertex -6.22011 -1.88685 20
      vertex -6.3052 -1.57937 20
    endloop
  endfacet
  facet normal 0 0 1
    outer loop
      vertex -11.1554 -2.79427 20
      vertex -6.3052 -1.57937 20
      vertex -6.3751 -1.26809 20
    endloop
  endfacet
  facet normal 0 0 1
    outer loop
      vertex -3.61121 -5.40455 20
      vertex -6.38906 -9.5619 20
      vertex -5.91218 -9.86388 20
    endloop
  endfacet
  facet normal 0 0 1
    outer loop
      vertex -11.279 -2.24354 20
      vertex -6.3751 -1.26809 20
      vertex -6.42965 -0.953748 20
    endloop
  endfacet
  facet normal 0 0 1
    outer loop
      vertex -11.3755 -1.6874 20
      vertex -6.42965 -0.953748 20
      vertex -6.4687 -0.637111 20
    endloop
  endfacet
  facet normal 0 0 1
    outer loop
      vertex -11.4446 -1.1272 20
      vertex -6.4687 -0.637111 20
      vertex -6.49217 -0.318939 20
    endloop
  endfacet
  facet normal 0 0 1
    outer loop
      vertex -11.4861 -0.564278 20
      vertex -6.49217 -0.318939 20
      vertex -6.5 0 20
    endloop
  endfacet
  facet normal -0 0 1
    outer loop
      vertex -10.3959 4.91688 20
      vertex -5.87593 2.77911 20
      vertex -10.1421 5.42106 20
    endloop
  endfacet
  facet normal 0 0 1
    outer loop
      vertex -3.87204 -5.22085 20
      vertex -6.85054 -9.23689 20
      vertex -6.38906 -9.5619 20
    endloop
  endfacet
  facet normal 0 0 1
    outer loop
      vertex -5.87593 2.77911 20
      vertex -10.3959 4.91688 20
      vertex -6.00522 2.48744 20
    endloop
  endfacet
  facet normal 0 0 1
    outer loop
      vertex -4.12356 -5.02457 20
      vertex -7.29552 -8.88962 20
      vertex -6.85054 -9.23689 20
    endloop
  endfacet
  facet normal -0 0 1
    outer loop
      vertex -10.6246 4.40086 20
      vertex -6.00522 2.48744 20
      vertex -10.3959 4.91688 20
    endloop
  endfacet
  facet normal 0 0 1
    outer loop
      vertex -4.36513 -4.81618 20
      vertex -7.72293 -8.52094 20
      vertex -7.29552 -8.88962 20
    endloop
  endfacet
  facet normal 0 0 1
    outer loop
      vertex -6.00522 2.48744 20
      vertex -10.6246 4.40086 20
      vertex -6.12004 2.18978 20
    endloop
  endfacet
  facet normal 0 0 1
    outer loop
      vertex -4.59619 -4.59619 20
      vertex -8.13173 -8.13173 20
      vertex -7.72293 -8.52094 20
    endloop
  endfacet
  facet normal -0 0 1
    outer loop
      vertex -10.8278 3.87423 20
      vertex -6.12004 2.18978 20
      vertex -10.6246 4.40086 20
    endloop
  endfacet
  facet normal 0 0 1
    outer loop
      vertex -4.81618 -4.36513 20
      vertex -8.52094 -7.72293 20
      vertex -8.13173 -8.13173 20
    endloop
  endfacet
  facet normal 0 0 1
    outer loop
      vertex -6.12004 2.18978 20
      vertex -10.8278 3.87423 20
      vertex -6.22011 1.88685 20
    endloop
  endfacet
  facet normal 0 0 1
    outer loop
      vertex -5.02457 -4.12356 20
      vertex -8.88962 -7.29552 20
      vertex -8.52094 -7.72293 20
    endloop
  endfacet
  facet normal -0 0 1
    outer loop
      vertex -11.0048 3.33827 20
      vertex -6.22011 1.88685 20
      vertex -10.8278 3.87423 20
    endloop
  endfacet
  facet normal 0 0 1
    outer loop
      vertex -5.22085 -3.87204 20
      vertex -9.23689 -6.85054 20
      vertex -8.88962 -7.29552 20
    endloop
  endfacet
  facet normal 0 0 1
    outer loop
      vertex -6.22011 1.88685 20
      vertex -11.0048 3.33827 20
      vertex -6.3052 1.57937 20
    endloop
  endfacet
  facet normal 0 0 1
    outer loop
      vertex -5.40455 -3.61121 20
      vertex -9.5619 -6.38906 20
      vertex -9.23689 -6.85054 20
    endloop
  endfacet
  facet normal -0 0 1
    outer loop
      vertex -11.1554 2.79427 20
      vertex -6.3052 1.57937 20
      vertex -11.0048 3.33827 20
    endloop
  endfacet
  facet normal 0 0 1
    outer loop
      vertex -5.57524 -3.34167 20
      vertex -9.86388 -5.91218 20
      vertex -9.5619 -6.38906 20
    endloop
  endfacet
  facet normal 0 0 1
    outer loop
      vertex -6.3052 1.57937 20
      vertex -11.1554 2.79427 20
      vertex -6.3751 1.26809 20
    endloop
  endfacet
  facet normal 0 0 1
    outer loop
      vertex -5.73249 -3.06408 20
      vertex -10.1421 -5.42106 20
      vertex -9.86388 -5.91218 20
    endloop
  endfacet
  facet normal -0 0 1
    outer loop
      vertex -11.279 2.24354 20
      vertex -6.3751 1.26809 20
      vertex -11.1554 2.79427 20
    endloop
  endfacet
  facet normal 0 0 1
    outer loop
      vertex -5.87593 -2.77911 20
      vertex -10.3959 -4.91688 20
      vertex -10.1421 -5.42106 20
    endloop
  endfacet
  facet normal 0 0 1
    outer loop
      vertex -6.3751 1.26809 20
      vertex -11.279 2.24354 20
      vertex -6.42965 0.953748 20
    endloop
  endfacet
  facet normal 0 0 1
    outer loop
      vertex -6.00522 -2.48744 20
      vertex -10.6246 -4.40086 20
      vertex -10.3959 -4.91688 20
    endloop
  endfacet
  facet normal -0 0 1
    outer loop
      vertex -11.3755 1.6874 20
      vertex -6.42965 0.953748 20
      vertex -11.279 2.24354 20
    endloop
  endfacet
  facet normal 0 0 1
    outer loop
      vertex -6.12004 -2.18978 20
      vertex -10.8278 -3.87423 20
      vertex -10.6246 -4.40086 20
    endloop
  endfacet
  facet normal 0 0 1
    outer loop
      vertex -6.42965 0.953748 20
      vertex -11.3755 1.6874 20
      vertex -6.4687 0.637111 20
    endloop
  endfacet
  facet normal 0 0 1
    outer loop
      vertex -6.22011 -1.88685 20
      vertex -11.0048 -3.33827 20
      vertex -10.8278 -3.87423 20
    endloop
  endfacet
  facet normal -0 0 1
    outer loop
      vertex -11.4446 1.1272 20
      vertex -6.4687 0.637111 20
      vertex -11.3755 1.6874 20
    endloop
  endfacet
  facet normal 0 0 1
    outer loop
      vertex -6.3052 -1.57937 20
      vertex -11.1554 -2.79427 20
      vertex -11.0048 -3.33827 20
    endloop
  endfacet
  facet normal 0 0 1
    outer loop
      vertex -6.4687 0.637111 20
      vertex -11.4446 1.1272 20
      vertex -6.49217 0.318939 20
    endloop
  endfacet
  facet normal 0 0 1
    outer loop
      vertex -6.3751 -1.26809 20
      vertex -11.279 -2.24354 20
      vertex -11.1554 -2.79427 20
    endloop
  endfacet
  facet normal -0 0 1
    outer loop
      vertex -11.4861 0.564278 20
      vertex -6.49217 0.318939 20
      vertex -11.4446 1.1272 20
    endloop
  endfacet
  facet normal 0 0 1
    outer loop
      vertex -6.42965 -0.953748 20
      vertex -11.3755 -1.6874 20
      vertex -11.279 -2.24354 20
    endloop
  endfacet
  facet normal 0 0 1
    outer loop
      vertex -6.49217 0.318939 20
      vertex -11.4861 0.564278 20
      vertex -6.5 0 20
    endloop
  endfacet
  facet normal 0 0 1
    outer loop
      vertex -6.4687 -0.637111 20
      vertex -11.4446 -1.1272 20
      vertex -11.3755 -1.6874 20
    endloop
  endfacet
  facet normal 0 0 1
    outer loop
      vertex -11.5 0 20
      vertex -6.5 0 20
      vertex -11.4861 0.564278 20
    endloop
  endfacet
  facet normal 0 0 1
    outer loop
      vertex -6.49217 -0.318939 20
      vertex -11.4861 -0.564278 20
      vertex -11.4446 -1.1272 20
    endloop
  endfacet
  facet normal 0 0 1
    outer loop
      vertex -6.5 0 20
      vertex -11.5 0 20
      vertex -11.4861 -0.564278 20
    endloop
  endfacet
  facet normal -0.997294 0.0735229 0
    outer loop
      vertex -11.4861 0.564278 0
      vertex -11.4446 1.1272 20
      vertex -11.4446 1.1272 0
    endloop
  endfacet
  facet normal -0.997294 0.0735229 0
    outer loop
      vertex -11.4446 1.1272 20
      vertex -11.4861 0.564278 0
      vertex -11.4861 0.564278 20
    endloop
  endfacet
  facet normal -0.985277 0.170963 0
    outer loop
      vertex -11.3755 1.6874 0
      vertex -11.279 2.24354 20
      vertex -11.279 2.24354 0
    endloop
  endfacet
  facet normal -0.985277 0.170963 0
    outer loop
      vertex -11.279 2.24354 20
      vertex -11.3755 1.6874 0
      vertex -11.3755 1.6874 20
    endloop
  endfacet
  facet normal -0.405188 0.914233 0
    outer loop
      vertex -4.40086 10.6246 0
      vertex -4.91688 10.3959 20
      vertex -4.40086 10.6246 20
    endloop
  endfacet
  facet normal -0.405188 0.914233 0
    outer loop
      vertex -4.91688 10.3959 20
      vertex -4.40086 10.6246 0
      vertex -4.91688 10.3959 0
    endloop
  endfacet
  facet normal -0.653166 0.757214 0
    outer loop
      vertex -7.29552 8.88962 0
      vertex -7.72293 8.52094 20
      vertex -7.29552 8.88962 20
    endloop
  endfacet
  facet normal -0.653166 0.757214 0
    outer loop
      vertex -7.72293 8.52094 20
      vertex -7.29552 8.88962 0
      vertex -7.72293 8.52094 0
    endloop
  endfacet
  facet normal -0.31359 0.949558 0
    outer loop
      vertex -3.33827 11.0048 0
      vertex -3.87423 10.8278 20
      vertex -3.33827 11.0048 20
    endloop
  endfacet
  facet normal -0.31359 0.949558 0
    outer loop
      vertex -3.87423 10.8278 20
      vertex -3.33827 11.0048 0
      vertex -3.87423 10.8278 0
    endloop
  endfacet
  facet normal -0.218982 0.975729 0
    outer loop
      vertex -2.24354 11.279 0
      vertex -2.79427 11.1554 20
      vertex -2.24354 11.279 20
    endloop
  endfacet
  facet normal -0.218982 0.975729 0
    outer loop
      vertex -2.79427 11.1554 20
      vertex -2.24354 11.279 0
      vertex -2.79427 11.1554 0
    endloop
  endfacet
  facet normal -0.122421 0.992478 0
    outer loop
      vertex -1.1272 11.4446 0
      vertex -1.6874 11.3755 20
      vertex -1.1272 11.4446 20
    endloop
  endfacet
  facet normal -0.122421 0.992478 0
    outer loop
      vertex -1.6874 11.3755 20
      vertex -1.1272 11.4446 0
      vertex -1.6874 11.3755 0
    endloop
  endfacet
  facet normal -0.575807 -0.817586 0
    outer loop
      vertex -6.85054 -9.23689 0
      vertex -6.38906 -9.5619 20
      vertex -6.85054 -9.23689 20
    endloop
  endfacet
  facet normal -0.575807 -0.817586 -0
    outer loop
      vertex -6.38906 -9.5619 20
      vertex -6.85054 -9.23689 0
      vertex -6.38906 -9.5619 0
    endloop
  endfacet
  facet normal -0.218982 -0.975729 0
    outer loop
      vertex -2.79427 -11.1554 0
      vertex -2.24354 -11.279 20
      vertex -2.79427 -11.1554 20
    endloop
  endfacet
  facet normal -0.218982 -0.975729 -0
    outer loop
      vertex -2.24354 -11.279 20
      vertex -2.79427 -11.1554 0
      vertex -2.24354 -11.279 0
    endloop
  endfacet
  facet normal -0.122421 -0.992478 0
    outer loop
      vertex -1.6874 -11.3755 0
      vertex -1.1272 -11.4446 20
      vertex -1.6874 -11.3755 20
    endloop
  endfacet
  facet normal -0.122421 -0.992478 -0
    outer loop
      vertex -1.1272 -11.4446 20
      vertex -1.6874 -11.3755 0
      vertex -1.1272 -11.4446 0
    endloop
  endfacet
  facet normal -0.844854 -0.534996 0
    outer loop
      vertex -9.5619 -6.38906 0
      vertex -9.86388 -5.91218 20
      vertex -9.86388 -5.91218 0
    endloop
  endfacet
  facet normal -0.844854 -0.534996 0
    outer loop
      vertex -9.86388 -5.91218 20
      vertex -9.5619 -6.38906 0
      vertex -9.5619 -6.38906 20
    endloop
  endfacet
  facet normal -0.788343 -0.615236 0
    outer loop
      vertex -8.88962 -7.29552 0
      vertex -9.23689 -6.85054 20
      vertex -9.23689 -6.85054 0
    endloop
  endfacet
  facet normal -0.788343 -0.615236 0
    outer loop
      vertex -9.23689 -6.85054 20
      vertex -8.88962 -7.29552 0
      vertex -8.88962 -7.29552 20
    endloop
  endfacet
  facet normal -0.963751 -0.266803 0
    outer loop
      vertex -11.0048 -3.33827 0
      vertex -11.1554 -2.79427 20
      vertex -11.1554 -2.79427 0
    endloop
  endfacet
  facet normal -0.963751 -0.266803 0
    outer loop
      vertex -11.1554 -2.79427 20
      vertex -11.0048 -3.33827 0
      vertex -11.0048 -3.33827 20
    endloop
  endfacet
  facet normal -0.997294 -0.0735229 0
    outer loop
      vertex -11.4446 -1.1272 0
      vertex -11.4861 -0.564278 20
      vertex -11.4861 -0.564278 0
    endloop
  endfacet
  facet normal -0.997294 -0.0735229 0
    outer loop
      vertex -11.4861 -0.564278 20
      vertex -11.4446 -1.1272 0
      vertex -11.4446 -1.1272 20
    endloop
  endfacet
  facet normal 1 0 0
    outer loop
      vertex 11.5 -6.5 20
      vertex 11.5 -11.5 20
      vertex 11.5 -6.5 4
    endloop
  endfacet
  facet normal 1 0 0
    outer loop
      vertex 11.5 6.5 4
      vertex 11.5 11.5 20
      vertex 11.5 6.5 20
    endloop
  endfacet
  facet normal 1 0 0
    outer loop
      vertex 11.5 11.5 20
      vertex 11.5 6.5 4
      vertex 11.5 11.5 0
    endloop
  endfacet
  facet normal 1 -0 0
    outer loop
      vertex 11.5 -6.5 4
      vertex 11.5 11.5 0
      vertex 11.5 6.5 4
    endloop
  endfacet
  facet normal 1 0 0
    outer loop
      vertex 11.5 -6.5 4
      vertex 11.5 -11.5 0
      vertex 11.5 11.5 0
    endloop
  endfacet
  facet normal 1 0 0
    outer loop
      vertex 11.5 -11.5 0
      vertex 11.5 -6.5 4
      vertex 11.5 -11.5 20
    endloop
  endfacet
  facet normal 0 -1 0
    outer loop
      vertex 0 -11.5 0
      vertex 11.5 -11.5 20
      vertex 0 -11.5 20
    endloop
  endfacet
  facet normal 0 -1 -0
    outer loop
      vertex 11.5 -11.5 20
      vertex 0 -11.5 0
      vertex 11.5 -11.5 0
    endloop
  endfacet
  facet normal 0 1 -0
    outer loop
      vertex 11.5 11.5 0
      vertex 0 11.5 20
      vertex 11.5 11.5 20
    endloop
  endfacet
  facet normal 0 1 0
    outer loop
      vertex 0 11.5 20
      vertex 11.5 11.5 0
      vertex 0 11.5 0
    endloop
  endfacet
  facet normal 0.999699 -0.0245428 0
    outer loop
      vertex -6.5 0 20
      vertex -6.49217 0.318939 4
      vertex -6.49217 0.318939 20
    endloop
  endfacet
  facet normal 0.999699 -0.0245428 0
    outer loop
      vertex -6.49217 0.318939 4
      vertex -6.5 0 20
      vertex -6.5 0 4
    endloop
  endfacet
  facet normal 0.689545 -0.724243 0
    outer loop
      vertex -4.59619 4.59619 4
      vertex -4.36513 4.81618 20
      vertex -4.59619 4.59619 20
    endloop
  endfacet
  facet normal 0.689545 -0.724243 0
    outer loop
      vertex -4.36513 4.81618 20
      vertex -4.59619 4.59619 4
      vertex -4.36513 4.81618 4
    endloop
  endfacet
  facet normal 0.359895 -0.932993 0
    outer loop
      vertex -2.48744 6.00522 4
      vertex -2.18978 6.12004 20
      vertex -2.48744 6.00522 20
    endloop
  endfacet
  facet normal 0.359895 -0.932993 0
    outer loop
      vertex -2.18978 6.12004 20
      vertex -2.48744 6.00522 4
      vertex -2.18978 6.12004 4
    endloop
  endfacet
  facet normal 0.914208 -0.405245 0
    outer loop
      vertex -6.00522 2.48744 20
      vertex -5.87593 2.77911 4
      vertex -5.87593 2.77911 20
    endloop
  endfacet
  facet normal 0.914208 -0.405245 0
    outer loop
      vertex -5.87593 2.77911 4
      vertex -6.00522 2.48744 20
      vertex -6.00522 2.48744 4
    endloop
  endfacet
  facet normal 0.757193 -0.653191 0
    outer loop
      vertex -5.02457 4.12356 20
      vertex -4.81618 4.36513 4
      vertex -4.81618 4.36513 20
    endloop
  endfacet
  facet normal 0.757193 -0.653191 0
    outer loop
      vertex -4.81618 4.36513 4
      vertex -5.02457 4.12356 20
      vertex -5.02457 4.12356 4
    endloop
  endfacet
  facet normal 0.170982 -0.985274 0
    outer loop
      vertex -1.26809 6.3751 4
      vertex -0.953748 6.42965 20
      vertex -1.26809 6.3751 20
    endloop
  endfacet
  facet normal 0.170982 -0.985274 0
    outer loop
      vertex -0.953748 6.42965 20
      vertex -1.26809 6.3751 4
      vertex -0.953748 6.42965 4
    endloop
  endfacet
  facet normal 0.757193 0.653191 0
    outer loop
      vertex -4.81618 -4.36513 20
      vertex -5.02457 -4.12356 4
      vertex -5.02457 -4.12356 20
    endloop
  endfacet
  facet normal 0.757193 0.653191 0
    outer loop
      vertex -5.02457 -4.12356 4
      vertex -4.81618 -4.36513 20
      vertex -4.81618 -4.36513 4
    endloop
  endfacet
  facet normal 0.949532 0.313669 0
    outer loop
      vertex -6.12004 -2.18978 20
      vertex -6.22011 -1.88685 4
      vertex -6.22011 -1.88685 20
    endloop
  endfacet
  facet normal 0.949532 0.313669 0
    outer loop
      vertex -6.22011 -1.88685 4
      vertex -6.12004 -2.18978 20
      vertex -6.12004 -2.18978 4
    endloop
  endfacet
  facet normal 0.963777 -0.266709 0
    outer loop
      vertex -6.3052 1.57937 20
      vertex -6.22011 1.88685 4
      vertex -6.22011 1.88685 20
    endloop
  endfacet
  facet normal 0.963777 -0.266709 0
    outer loop
      vertex -6.22011 1.88685 4
      vertex -6.3052 1.57937 20
      vertex -6.3052 1.57937 4
    endloop
  endfacet
  facet normal 0.788359 -0.615216 0
    outer loop
      vertex -5.22085 3.87204 20
      vertex -5.02457 4.12356 4
      vertex -5.02457 4.12356 20
    endloop
  endfacet
  facet normal 0.788359 -0.615216 0
    outer loop
      vertex -5.02457 4.12356 4
      vertex -5.22085 3.87204 20
      vertex -5.22085 3.87204 4
    endloop
  endfacet
  facet normal 0.949532 -0.313669 0
    outer loop
      vertex -6.22011 1.88685 20
      vertex -6.12004 2.18978 4
      vertex -6.12004 2.18978 20
    endloop
  endfacet
  facet normal 0.949532 -0.313669 0
    outer loop
      vertex -6.12004 2.18978 4
      vertex -6.22011 1.88685 20
      vertex -6.22011 1.88685 4
    endloop
  endfacet
  facet normal 0.492892 -0.870091 0
    outer loop
      vertex -3.34167 5.57524 4
      vertex -3.06408 5.73249 20
      vertex -3.34167 5.57524 20
    endloop
  endfacet
  facet normal 0.492892 -0.870091 0
    outer loop
      vertex -3.06408 5.73249 20
      vertex -3.34167 5.57524 4
      vertex -3.06408 5.73249 4
    endloop
  endfacet
  facet normal 0.449607 -0.893227 0
    outer loop
      vertex -3.06408 5.73249 4
      vertex -2.77911 5.87593 20
      vertex -3.06408 5.73249 20
    endloop
  endfacet
  facet normal 0.449607 -0.893227 0
    outer loop
      vertex -2.77911 5.87593 20
      vertex -3.06408 5.73249 4
      vertex -2.77911 5.87593 4
    endloop
  endfacet
  facet normal 0.615216 0.788359 -0
    outer loop
      vertex -3.87204 -5.22085 4
      vertex -4.12356 -5.02457 20
      vertex -3.87204 -5.22085 20
    endloop
  endfacet
  facet normal 0.615216 0.788359 0
    outer loop
      vertex -4.12356 -5.02457 20
      vertex -3.87204 -5.22085 4
      vertex -4.12356 -5.02457 4
    endloop
  endfacet
  facet normal 0.405245 0.914208 -0
    outer loop
      vertex -2.48744 -6.00522 4
      vertex -2.77911 -5.87593 20
      vertex -2.48744 -6.00522 20
    endloop
  endfacet
  facet normal 0.405245 0.914208 0
    outer loop
      vertex -2.77911 -5.87593 20
      vertex -2.48744 -6.00522 4
      vertex -2.77911 -5.87593 4
    endloop
  endfacet
  facet normal 0.170982 0.985274 -0
    outer loop
      vertex -0.953748 -6.42965 4
      vertex -1.26809 -6.3751 20
      vertex -0.953748 -6.42965 20
    endloop
  endfacet
  facet normal 0.170982 0.985274 0
    outer loop
      vertex -1.26809 -6.3751 20
      vertex -0.953748 -6.42965 4
      vertex -1.26809 -6.3751 4
    endloop
  endfacet
  facet normal 0.817581 -0.575814 0
    outer loop
      vertex -5.40455 3.61121 20
      vertex -5.22085 3.87204 4
      vertex -5.22085 3.87204 20
    endloop
  endfacet
  facet normal 0.817581 -0.575814 0
    outer loop
      vertex -5.22085 3.87204 4
      vertex -5.40455 3.61121 20
      vertex -5.40455 3.61121 4
    endloop
  endfacet
  facet normal 0.844846 -0.53501 0
    outer loop
      vertex -5.57524 3.34167 20
      vertex -5.40455 3.61121 4
      vertex -5.40455 3.61121 20
    endloop
  endfacet
  facet normal 0.844846 -0.53501 0
    outer loop
      vertex -5.40455 3.61121 4
      vertex -5.57524 3.34167 20
      vertex -5.57524 3.34167 4
    endloop
  endfacet
  facet normal 0.870091 -0.492892 0
    outer loop
      vertex -5.73249 3.06408 20
      vertex -5.57524 3.34167 4
      vertex -5.57524 3.34167 20
    endloop
  endfacet
  facet normal 0.870091 -0.492892 0
    outer loop
      vertex -5.57524 3.34167 4
      vertex -5.73249 3.06408 20
      vertex -5.73249 3.06408 4
    endloop
  endfacet
  facet normal 0.932993 -0.359895 0
    outer loop
      vertex -6.12004 2.18978 20
      vertex -6.00522 2.48744 4
      vertex -6.00522 2.48744 20
    endloop
  endfacet
  facet normal 0.932993 -0.359895 0
    outer loop
      vertex -6.00522 2.48744 4
      vertex -6.12004 2.18978 20
      vertex -6.12004 2.18978 4
    endloop
  endfacet
  facet normal 0.975702 -0.2191 0
    outer loop
      vertex -6.3751 1.26809 20
      vertex -6.3052 1.57937 4
      vertex -6.3052 1.57937 20
    endloop
  endfacet
  facet normal 0.975702 -0.2191 0
    outer loop
      vertex -6.3052 1.57937 4
      vertex -6.3751 1.26809 20
      vertex -6.3751 1.26809 4
    endloop
  endfacet
  facet normal 0.992481 -0.1224 0
    outer loop
      vertex -6.4687 0.637111 20
      vertex -6.42965 0.953748 4
      vertex -6.42965 0.953748 20
    endloop
  endfacet
  facet normal 0.992481 -0.1224 0
    outer loop
      vertex -6.42965 0.953748 4
      vertex -6.4687 0.637111 20
      vertex -6.4687 0.637111 4
    endloop
  endfacet
  facet normal 0.53501 -0.844846 0
    outer loop
      vertex -3.61121 5.40455 4
      vertex -3.34167 5.57524 20
      vertex -3.61121 5.40455 20
    endloop
  endfacet
  facet normal 0.53501 -0.844846 0
    outer loop
      vertex -3.34167 5.57524 20
      vertex -3.61121 5.40455 4
      vertex -3.34167 5.57524 4
    endloop
  endfacet
  facet normal 0.615216 -0.788359 0
    outer loop
      vertex -4.12356 5.02457 4
      vertex -3.87204 5.22085 20
      vertex -4.12356 5.02457 20
    endloop
  endfacet
  facet normal 0.615216 -0.788359 0
    outer loop
      vertex -3.87204 5.22085 20
      vertex -4.12356 5.02457 4
      vertex -3.87204 5.22085 4
    endloop
  endfacet
  facet normal 0.266709 -0.963777 0
    outer loop
      vertex -1.88685 6.22011 4
      vertex -1.57937 6.3052 20
      vertex -1.88685 6.22011 20
    endloop
  endfacet
  facet normal 0.266709 -0.963777 0
    outer loop
      vertex -1.57937 6.3052 20
      vertex -1.88685 6.22011 4
      vertex -1.57937 6.3052 4
    endloop
  endfacet
  facet normal 0.0245428 -0.999699 0
    outer loop
      vertex -0.318939 6.49217 4
      vertex 0 6.5 20
      vertex -0.318939 6.49217 20
    endloop
  endfacet
  facet normal 0.0245428 -0.999699 0
    outer loop
      vertex 0 6.5 20
      vertex -0.318939 6.49217 4
      vertex 0 6.5 4
    endloop
  endfacet
  facet normal 0.0735653 -0.99729 0
    outer loop
      vertex -0.637111 6.4687 4
      vertex -0.318939 6.49217 20
      vertex -0.637111 6.4687 20
    endloop
  endfacet
  facet normal 0.0735653 -0.99729 0
    outer loop
      vertex -0.318939 6.49217 20
      vertex -0.637111 6.4687 4
      vertex -0.318939 6.49217 4
    endloop
  endfacet
  facet normal 0.0735653 0.99729 -0
    outer loop
      vertex -0.318939 -6.49217 4
      vertex -0.637111 -6.4687 20
      vertex -0.318939 -6.49217 20
    endloop
  endfacet
  facet normal 0.0735653 0.99729 0
    outer loop
      vertex -0.637111 -6.4687 20
      vertex -0.318939 -6.49217 4
      vertex -0.637111 -6.4687 4
    endloop
  endfacet
  facet normal 0.689545 0.724243 -0
    outer loop
      vertex -4.36513 -4.81618 4
      vertex -4.59619 -4.59619 20
      vertex -4.36513 -4.81618 20
    endloop
  endfacet
  facet normal 0.689545 0.724243 0
    outer loop
      vertex -4.59619 -4.59619 20
      vertex -4.36513 -4.81618 4
      vertex -4.59619 -4.59619 4
    endloop
  endfacet
  facet normal 0.653191 0.757193 -0
    outer loop
      vertex -4.12356 -5.02457 4
      vertex -4.36513 -4.81618 20
      vertex -4.12356 -5.02457 20
    endloop
  endfacet
  facet normal 0.653191 0.757193 0
    outer loop
      vertex -4.36513 -4.81618 20
      vertex -4.12356 -5.02457 4
      vertex -4.36513 -4.81618 4
    endloop
  endfacet
  facet normal 0.53501 0.844846 -0
    outer loop
      vertex -3.34167 -5.57524 4
      vertex -3.61121 -5.40455 20
      vertex -3.34167 -5.57524 20
    endloop
  endfacet
  facet normal 0.53501 0.844846 0
    outer loop
      vertex -3.61121 -5.40455 20
      vertex -3.34167 -5.57524 4
      vertex -3.61121 -5.40455 4
    endloop
  endfacet
  facet normal 0.449607 0.893227 -0
    outer loop
      vertex -2.77911 -5.87593 4
      vertex -3.06408 -5.73249 20
      vertex -2.77911 -5.87593 20
    endloop
  endfacet
  facet normal 0.449607 0.893227 0
    outer loop
      vertex -3.06408 -5.73249 20
      vertex -2.77911 -5.87593 4
      vertex -3.06408 -5.73249 4
    endloop
  endfacet
  facet normal 0.492892 0.870091 -0
    outer loop
      vertex -3.06408 -5.73249 4
      vertex -3.34167 -5.57524 20
      vertex -3.06408 -5.73249 20
    endloop
  endfacet
  facet normal 0.492892 0.870091 0
    outer loop
      vertex -3.34167 -5.57524 20
      vertex -3.06408 -5.73249 4
      vertex -3.34167 -5.57524 4
    endloop
  endfacet
  facet normal 0.313669 0.949532 -0
    outer loop
      vertex -1.88685 -6.22011 4
      vertex -2.18978 -6.12004 20
      vertex -1.88685 -6.22011 20
    endloop
  endfacet
  facet normal 0.313669 0.949532 0
    outer loop
      vertex -2.18978 -6.12004 20
      vertex -1.88685 -6.22011 4
      vertex -2.18978 -6.12004 4
    endloop
  endfacet
  facet normal 0.359895 0.932993 -0
    outer loop
      vertex -2.18978 -6.12004 4
      vertex -2.48744 -6.00522 20
      vertex -2.18978 -6.12004 20
    endloop
  endfacet
  facet normal 0.359895 0.932993 0
    outer loop
      vertex -2.48744 -6.00522 20
      vertex -2.18978 -6.12004 4
      vertex -2.48744 -6.00522 4
    endloop
  endfacet
  facet normal 0.266709 0.963777 -0
    outer loop
      vertex -1.57937 -6.3052 4
      vertex -1.88685 -6.22011 20
      vertex -1.57937 -6.3052 20
    endloop
  endfacet
  facet normal 0.266709 0.963777 0
    outer loop
      vertex -1.88685 -6.22011 20
      vertex -1.57937 -6.3052 4
      vertex -1.88685 -6.22011 4
    endloop
  endfacet
  facet normal 0.0245428 0.999699 -0
    outer loop
      vertex 0 -6.5 4
      vertex -0.318939 -6.49217 20
      vertex 0 -6.5 20
    endloop
  endfacet
  facet normal 0.0245428 0.999699 0
    outer loop
      vertex -0.318939 -6.49217 20
      vertex 0 -6.5 4
      vertex -0.318939 -6.49217 4
    endloop
  endfacet
  facet normal 0.724243 0.689545 0
    outer loop
      vertex -4.59619 -4.59619 20
      vertex -4.81618 -4.36513 4
      vertex -4.81618 -4.36513 20
    endloop
  endfacet
  facet normal 0.724243 0.689545 0
    outer loop
      vertex -4.81618 -4.36513 4
      vertex -4.59619 -4.59619 20
      vertex -4.59619 -4.59619 4
    endloop
  endfacet
  facet normal 0.914208 0.405245 0
    outer loop
      vertex -5.87593 -2.77911 20
      vertex -6.00522 -2.48744 4
      vertex -6.00522 -2.48744 20
    endloop
  endfacet
  facet normal 0.914208 0.405245 0
    outer loop
      vertex -6.00522 -2.48744 4
      vertex -5.87593 -2.77911 20
      vertex -5.87593 -2.77911 4
    endloop
  endfacet
  facet normal 0.893227 0.449607 0
    outer loop
      vertex -5.73249 -3.06408 20
      vertex -5.87593 -2.77911 4
      vertex -5.87593 -2.77911 20
    endloop
  endfacet
  facet normal 0.893227 0.449607 0
    outer loop
      vertex -5.87593 -2.77911 4
      vertex -5.73249 -3.06408 20
      vertex -5.73249 -3.06408 4
    endloop
  endfacet
  facet normal 0.870091 0.492892 0
    outer loop
      vertex -5.57524 -3.34167 20
      vertex -5.73249 -3.06408 4
      vertex -5.73249 -3.06408 20
    endloop
  endfacet
  facet normal 0.870091 0.492892 0
    outer loop
      vertex -5.73249 -3.06408 4
      vertex -5.57524 -3.34167 20
      vertex -5.57524 -3.34167 4
    endloop
  endfacet
  facet normal 0.817581 0.575814 0
    outer loop
      vertex -5.22085 -3.87204 20
      vertex -5.40455 -3.61121 4
      vertex -5.40455 -3.61121 20
    endloop
  endfacet
  facet normal 0.817581 0.575814 0
    outer loop
      vertex -5.40455 -3.61121 4
      vertex -5.22085 -3.87204 20
      vertex -5.22085 -3.87204 4
    endloop
  endfacet
  facet normal 0.932993 0.359895 0
    outer loop
      vertex -6.00522 -2.48744 20
      vertex -6.12004 -2.18978 4
      vertex -6.12004 -2.18978 20
    endloop
  endfacet
  facet normal 0.932993 0.359895 0
    outer loop
      vertex -6.12004 -2.18978 4
      vertex -6.00522 -2.48744 20
      vertex -6.00522 -2.48744 4
    endloop
  endfacet
  facet normal 0.975702 0.2191 0
    outer loop
      vertex -6.3052 -1.57937 20
      vertex -6.3751 -1.26809 4
      vertex -6.3751 -1.26809 20
    endloop
  endfacet
  facet normal 0.975702 0.2191 0
    outer loop
      vertex -6.3751 -1.26809 4
      vertex -6.3052 -1.57937 20
      vertex -6.3052 -1.57937 4
    endloop
  endfacet
  facet normal 0.992481 0.1224 0
    outer loop
      vertex -6.42965 -0.953748 20
      vertex -6.4687 -0.637111 4
      vertex -6.4687 -0.637111 20
    endloop
  endfacet
  facet normal 0.992481 0.1224 0
    outer loop
      vertex -6.4687 -0.637111 4
      vertex -6.42965 -0.953748 20
      vertex -6.42965 -0.953748 4
    endloop
  endfacet
  facet normal 0.999699 0.0245428 0
    outer loop
      vertex -6.49217 -0.318939 20
      vertex -6.5 0 4
      vertex -6.5 0 20
    endloop
  endfacet
  facet normal 0.999699 0.0245428 0
    outer loop
      vertex -6.5 0 4
      vertex -6.49217 -0.318939 20
      vertex -6.49217 -0.318939 4
    endloop
  endfacet
  facet normal -0 0 1
    outer loop
      vertex 0 6.5 4
      vertex 11.5 -6.5 4
      vertex 11.5 6.5 4
    endloop
  endfacet
  facet normal 0 0 1
    outer loop
      vertex 0 6.5 4
      vertex 0 -6.5 4
      vertex 11.5 -6.5 4
    endloop
  endfacet
  facet normal -0 0 1
    outer loop
      vertex -0.318939 6.49217 4
      vertex 0 -6.5 4
      vertex 0 6.5 4
    endloop
  endfacet
  facet normal 0 0 1
    outer loop
      vertex -0.318939 6.49217 4
      vertex -0.318939 -6.49217 4
      vertex 0 -6.5 4
    endloop
  endfacet
  facet normal -0 0 1
    outer loop
      vertex -0.637111 6.4687 4
      vertex -0.318939 -6.49217 4
      vertex -0.318939 6.49217 4
    endloop
  endfacet
  facet normal 0 0 1
    outer loop
      vertex -0.637111 6.4687 4
      vertex -0.637111 -6.4687 4
      vertex -0.318939 -6.49217 4
    endloop
  endfacet
  facet normal -0 0 1
    outer loop
      vertex -0.953748 6.42965 4
      vertex -0.637111 -6.4687 4
      vertex -0.637111 6.4687 4
    endloop
  endfacet
  facet normal 0 0 1
    outer loop
      vertex -0.953748 6.42965 4
      vertex -0.953748 -6.42965 4
      vertex -0.637111 -6.4687 4
    endloop
  endfacet
  facet normal -0 0 1
    outer loop
      vertex -1.26809 6.3751 4
      vertex -0.953748 -6.42965 4
      vertex -0.953748 6.42965 4
    endloop
  endfacet
  facet normal 0 0 1
    outer loop
      vertex -1.26809 6.3751 4
      vertex -1.26809 -6.3751 4
      vertex -0.953748 -6.42965 4
    endloop
  endfacet
  facet normal -0 0 1
    outer loop
      vertex -1.57937 6.3052 4
      vertex -1.26809 -6.3751 4
      vertex -1.26809 6.3751 4
    endloop
  endfacet
  facet normal 0 0 1
    outer loop
      vertex -1.57937 6.3052 4
      vertex -1.57937 -6.3052 4
      vertex -1.26809 -6.3751 4
    endloop
  endfacet
  facet normal -0 0 1
    outer loop
      vertex -1.88685 6.22011 4
      vertex -1.57937 -6.3052 4
      vertex -1.57937 6.3052 4
    endloop
  endfacet
  facet normal 0 0 1
    outer loop
      vertex -1.88685 6.22011 4
      vertex -1.88685 -6.22011 4
      vertex -1.57937 -6.3052 4
    endloop
  endfacet
  facet normal -0 0 1
    outer loop
      vertex -2.18978 6.12004 4
      vertex -1.88685 -6.22011 4
      vertex -1.88685 6.22011 4
    endloop
  endfacet
  facet normal 0 0 1
    outer loop
      vertex -2.18978 6.12004 4
      vertex -2.18978 -6.12004 4
      vertex -1.88685 -6.22011 4
    endloop
  endfacet
  facet normal -0 0 1
    outer loop
      vertex -2.48744 6.00522 4
      vertex -2.18978 -6.12004 4
      vertex -2.18978 6.12004 4
    endloop
  endfacet
  facet normal 0 0 1
    outer loop
      vertex -2.48744 6.00522 4
      vertex -2.48744 -6.00522 4
      vertex -2.18978 -6.12004 4
    endloop
  endfacet
  facet normal -0 0 1
    outer loop
      vertex -2.77911 5.87593 4
      vertex -2.48744 -6.00522 4
      vertex -2.48744 6.00522 4
    endloop
  endfacet
  facet normal 0 0 1
    outer loop
      vertex -2.77911 5.87593 4
      vertex -2.77911 -5.87593 4
      vertex -2.48744 -6.00522 4
    endloop
  endfacet
  facet normal -0 0 1
    outer loop
      vertex -3.06408 5.73249 4
      vertex -2.77911 -5.87593 4
      vertex -2.77911 5.87593 4
    endloop
  endfacet
  facet normal 0 0 1
    outer loop
      vertex -3.06408 5.73249 4
      vertex -3.06408 -5.73249 4
      vertex -2.77911 -5.87593 4
    endloop
  endfacet
  facet normal -0 0 1
    outer loop
      vertex -3.34167 5.57524 4
      vertex -3.06408 -5.73249 4
      vertex -3.06408 5.73249 4
    endloop
  endfacet
  facet normal 0 0 1
    outer loop
      vertex -3.34167 5.57524 4
      vertex -3.34167 -5.57524 4
      vertex -3.06408 -5.73249 4
    endloop
  endfacet
  facet normal -0 0 1
    outer loop
      vertex -3.61121 5.40455 4
      vertex -3.34167 -5.57524 4
      vertex -3.34167 5.57524 4
    endloop
  endfacet
  facet normal 0 0 1
    outer loop
      vertex -3.61121 5.40455 4
      vertex -3.61121 -5.40455 4
      vertex -3.34167 -5.57524 4
    endloop
  endfacet
  facet normal -0 0 1
    outer loop
      vertex -3.87204 5.22085 4
      vertex -3.61121 -5.40455 4
      vertex -3.61121 5.40455 4
    endloop
  endfacet
  facet normal 0 0 1
    outer loop
      vertex -3.87204 5.22085 4
      vertex -3.87204 -5.22085 4
      vertex -3.61121 -5.40455 4
    endloop
  endfacet
  facet normal -0 0 1
    outer loop
      vertex -4.12356 5.02457 4
      vertex -3.87204 -5.22085 4
      vertex -3.87204 5.22085 4
    endloop
  endfacet
  facet normal 0 0 1
    outer loop
      vertex -4.12356 5.02457 4
      vertex -4.12356 -5.02457 4
      vertex -3.87204 -5.22085 4
    endloop
  endfacet
  facet normal -0 0 1
    outer loop
      vertex -4.36513 4.81618 4
      vertex -4.12356 -5.02457 4
      vertex -4.12356 5.02457 4
    endloop
  endfacet
  facet normal 0 0 1
    outer loop
      vertex -4.36513 4.81618 4
      vertex -4.36513 -4.81618 4
      vertex -4.12356 -5.02457 4
    endloop
  endfacet
  facet normal -0 0 1
    outer loop
      vertex -4.59619 4.59619 4
      vertex -4.36513 -4.81618 4
      vertex -4.36513 4.81618 4
    endloop
  endfacet
  facet normal 0 0 1
    outer loop
      vertex -4.59619 4.59619 4
      vertex -4.59619 -4.59619 4
      vertex -4.36513 -4.81618 4
    endloop
  endfacet
  facet normal -0 0 1
    outer loop
      vertex -4.81618 4.36513 4
      vertex -4.59619 -4.59619 4
      vertex -4.59619 4.59619 4
    endloop
  endfacet
  facet normal 0 0 1
    outer loop
      vertex -4.81618 4.36513 4
      vertex -4.81618 -4.36513 4
      vertex -4.59619 -4.59619 4
    endloop
  endfacet
  facet normal -0 0 1
    outer loop
      vertex -5.02457 4.12356 4
      vertex -4.81618 -4.36513 4
      vertex -4.81618 4.36513 4
    endloop
  endfacet
  facet normal 0 0 1
    outer loop
      vertex -5.02457 4.12356 4
      vertex -5.02457 -4.12356 4
      vertex -4.81618 -4.36513 4
    endloop
  endfacet
  facet normal -0 0 1
    outer loop
      vertex -5.22085 3.87204 4
      vertex -5.02457 -4.12356 4
      vertex -5.02457 4.12356 4
    endloop
  endfacet
  facet normal 0 0 1
    outer loop
      vertex -5.22085 3.87204 4
      vertex -5.22085 -3.87204 4
      vertex -5.02457 -4.12356 4
    endloop
  endfacet
  facet normal -0 0 1
    outer loop
      vertex -5.40455 3.61121 4
      vertex -5.22085 -3.87204 4
      vertex -5.22085 3.87204 4
    endloop
  endfacet
  facet normal 0 0 1
    outer loop
      vertex -5.40455 3.61121 4
      vertex -5.40455 -3.61121 4
      vertex -5.22085 -3.87204 4
    endloop
  endfacet
  facet normal -0 0 1
    outer loop
      vertex -5.57524 3.34167 4
      vertex -5.40455 -3.61121 4
      vertex -5.40455 3.61121 4
    endloop
  endfacet
  facet normal 0 0 1
    outer loop
      vertex -5.57524 3.34167 4
      vertex -5.57524 -3.34167 4
      vertex -5.40455 -3.61121 4
    endloop
  endfacet
  facet normal -0 0 1
    outer loop
      vertex -5.73249 3.06408 4
      vertex -5.57524 -3.34167 4
      vertex -5.57524 3.34167 4
    endloop
  endfacet
  facet normal 0 0 1
    outer loop
      vertex -5.73249 3.06408 4
      vertex -5.73249 -3.06408 4
      vertex -5.57524 -3.34167 4
    endloop
  endfacet
  facet normal -0 0 1
    outer loop
      vertex -5.87593 2.77911 4
      vertex -5.73249 -3.06408 4
      vertex -5.73249 3.06408 4
    endloop
  endfacet
  facet normal 0 0 1
    outer loop
      vertex -5.87593 2.77911 4
      vertex -5.87593 -2.77911 4
      vertex -5.73249 -3.06408 4
    endloop
  endfacet
  facet normal -0 0 1
    outer loop
      vertex -6.00522 2.48744 4
      vertex -5.87593 -2.77911 4
      vertex -5.87593 2.77911 4
    endloop
  endfacet
  facet normal 0 0 1
    outer loop
      vertex -6.00522 2.48744 4
      vertex -6.00522 -2.48744 4
      vertex -5.87593 -2.77911 4
    endloop
  endfacet
  facet normal -0 0 1
    outer loop
      vertex -6.12004 2.18978 4
      vertex -6.00522 -2.48744 4
      vertex -6.00522 2.48744 4
    endloop
  endfacet
  facet normal 0 0 1
    outer loop
      vertex -6.12004 2.18978 4
      vertex -6.12004 -2.18978 4
      vertex -6.00522 -2.48744 4
    endloop
  endfacet
  facet normal -0 0 1
    outer loop
      vertex -6.22011 1.88685 4
      vertex -6.12004 -2.18978 4
      vertex -6.12004 2.18978 4
    endloop
  endfacet
  facet normal 0 0 1
    outer loop
      vertex -6.22011 1.88685 4
      vertex -6.22011 -1.88685 4
      vertex -6.12004 -2.18978 4
    endloop
  endfacet
  facet normal -0 0 1
    outer loop
      vertex -6.3052 1.57937 4
      vertex -6.22011 -1.88685 4
      vertex -6.22011 1.88685 4
    endloop
  endfacet
  facet normal 0 0 1
    outer loop
      vertex -6.3052 1.57937 4
      vertex -6.3052 -1.57937 4
      vertex -6.22011 -1.88685 4
    endloop
  endfacet
  facet normal -0 0 1
    outer loop
      vertex -6.3751 1.26809 4
      vertex -6.3052 -1.57937 4
      vertex -6.3052 1.57937 4
    endloop
  endfacet
  facet normal 0 0 1
    outer loop
      vertex -6.3751 1.26809 4
      vertex -6.3751 -1.26809 4
      vertex -6.3052 -1.57937 4
    endloop
  endfacet
  facet normal -0 0 1
    outer loop
      vertex -6.42965 0.953748 4
      vertex -6.3751 -1.26809 4
      vertex -6.3751 1.26809 4
    endloop
  endfacet
  facet normal 0 0 1
    outer loop
      vertex -6.42965 0.953748 4
      vertex -6.42965 -0.953748 4
      vertex -6.3751 -1.26809 4
    endloop
  endfacet
  facet normal -0 0 1
    outer loop
      vertex -6.4687 0.637111 4
      vertex -6.42965 -0.953748 4
      vertex -6.42965 0.953748 4
    endloop
  endfacet
  facet normal 0 0 1
    outer loop
      vertex -6.4687 0.637111 4
      vertex -6.4687 -0.637111 4
      vertex -6.42965 -0.953748 4
    endloop
  endfacet
  facet normal -0 0 1
    outer loop
      vertex -6.49217 0.318939 4
      vertex -6.4687 -0.637111 4
      vertex -6.4687 0.637111 4
    endloop
  endfacet
  facet normal 0 0 1
    outer loop
      vertex -6.49217 0.318939 4
      vertex -6.49217 -0.318939 4
      vertex -6.4687 -0.637111 4
    endloop
  endfacet
  facet normal 0 -0 1
    outer loop
      vertex -6.49217 -0.318939 4
      vertex -6.49217 0.318939 4
      vertex -6.5 0 4
    endloop
  endfacet
  facet normal 0.985274 0.170982 0
    outer loop
      vertex -6.3751 -1.26809 20
      vertex -6.42965 -0.953748 4
      vertex -6.42965 -0.953748 20
    endloop
  endfacet
  facet normal 0.985274 0.170982 0
    outer loop
      vertex -6.42965 -0.953748 4
      vertex -6.3751 -1.26809 20
      vertex -6.3751 -1.26809 4
    endloop
  endfacet
  facet normal 0.724243 -0.689545 0
    outer loop
      vertex -4.81618 4.36513 20
      vertex -4.59619 4.59619 4
      vertex -4.59619 4.59619 20
    endloop
  endfacet
  facet normal 0.724243 -0.689545 0
    outer loop
      vertex -4.59619 4.59619 4
      vertex -4.81618 4.36513 20
      vertex -4.81618 4.36513 4
    endloop
  endfacet
  facet normal 0.893227 -0.449607 0
    outer loop
      vertex -5.87593 2.77911 20
      vertex -5.73249 3.06408 4
      vertex -5.73249 3.06408 20
    endloop
  endfacet
  facet normal 0.893227 -0.449607 0
    outer loop
      vertex -5.73249 3.06408 4
      vertex -5.87593 2.77911 20
      vertex -5.87593 2.77911 4
    endloop
  endfacet
  facet normal 0.99729 -0.0735653 0
    outer loop
      vertex -6.49217 0.318939 20
      vertex -6.4687 0.637111 4
      vertex -6.4687 0.637111 20
    endloop
  endfacet
  facet normal 0.99729 -0.0735653 0
    outer loop
      vertex -6.4687 0.637111 4
      vertex -6.49217 0.318939 20
      vertex -6.49217 0.318939 4
    endloop
  endfacet
  facet normal 0.985274 -0.170982 0
    outer loop
      vertex -6.42965 0.953748 20
      vertex -6.3751 1.26809 4
      vertex -6.3751 1.26809 20
    endloop
  endfacet
  facet normal 0.985274 -0.170982 0
    outer loop
      vertex -6.3751 1.26809 4
      vertex -6.42965 0.953748 20
      vertex -6.42965 0.953748 4
    endloop
  endfacet
  facet normal 0.405245 -0.914208 0
    outer loop
      vertex -2.77911 5.87593 4
      vertex -2.48744 6.00522 20
      vertex -2.77911 5.87593 20
    endloop
  endfacet
  facet normal 0.405245 -0.914208 0
    outer loop
      vertex -2.48744 6.00522 20
      vertex -2.77911 5.87593 4
      vertex -2.48744 6.00522 4
    endloop
  endfacet
  facet normal 0.653191 -0.757193 0
    outer loop
      vertex -4.36513 4.81618 4
      vertex -4.12356 5.02457 20
      vertex -4.36513 4.81618 20
    endloop
  endfacet
  facet normal 0.653191 -0.757193 0
    outer loop
      vertex -4.12356 5.02457 20
      vertex -4.36513 4.81618 4
      vertex -4.12356 5.02457 4
    endloop
  endfacet
  facet normal 0.575814 -0.817581 0
    outer loop
      vertex -3.87204 5.22085 4
      vertex -3.61121 5.40455 20
      vertex -3.87204 5.22085 20
    endloop
  endfacet
  facet normal 0.575814 -0.817581 0
    outer loop
      vertex -3.61121 5.40455 20
      vertex -3.87204 5.22085 4
      vertex -3.61121 5.40455 4
    endloop
  endfacet
  facet normal 0.313669 -0.949532 0
    outer loop
      vertex -2.18978 6.12004 4
      vertex -1.88685 6.22011 20
      vertex -2.18978 6.12004 20
    endloop
  endfacet
  facet normal 0.313669 -0.949532 0
    outer loop
      vertex -1.88685 6.22011 20
      vertex -2.18978 6.12004 4
      vertex -1.88685 6.22011 4
    endloop
  endfacet
  facet normal 0.2191 -0.975702 0
    outer loop
      vertex -1.57937 6.3052 4
      vertex -1.26809 6.3751 20
      vertex -1.57937 6.3052 20
    endloop
  endfacet
  facet normal 0.2191 -0.975702 0
    outer loop
      vertex -1.26809 6.3751 20
      vertex -1.57937 6.3052 4
      vertex -1.26809 6.3751 4
    endloop
  endfacet
  facet normal 0.1224 -0.992481 0
    outer loop
      vertex -0.953748 6.42965 4
      vertex -0.637111 6.4687 20
      vertex -0.953748 6.42965 20
    endloop
  endfacet
  facet normal 0.1224 -0.992481 0
    outer loop
      vertex -0.637111 6.4687 20
      vertex -0.953748 6.42965 4
      vertex -0.637111 6.4687 4
    endloop
  endfacet
  facet normal 0.575814 0.817581 -0
    outer loop
      vertex -3.61121 -5.40455 4
      vertex -3.87204 -5.22085 20
      vertex -3.61121 -5.40455 20
    endloop
  endfacet
  facet normal 0.575814 0.817581 0
    outer loop
      vertex -3.87204 -5.22085 20
      vertex -3.61121 -5.40455 4
      vertex -3.87204 -5.22085 4
    endloop
  endfacet
  facet normal 0.2191 0.975702 -0
    outer loop
      vertex -1.26809 -6.3751 4
      vertex -1.57937 -6.3052 20
      vertex -1.26809 -6.3751 20
    endloop
  endfacet
  facet normal 0.2191 0.975702 0
    outer loop
      vertex -1.57937 -6.3052 20
      vertex -1.26809 -6.3751 4
      vertex -1.57937 -6.3052 4
    endloop
  endfacet
  facet normal 0.1224 0.992481 -0
    outer loop
      vertex -0.637111 -6.4687 4
      vertex -0.953748 -6.42965 20
      vertex -0.637111 -6.4687 20
    endloop
  endfacet
  facet normal 0.1224 0.992481 0
    outer loop
      vertex -0.953748 -6.42965 20
      vertex -0.637111 -6.4687 4
      vertex -0.953748 -6.42965 4
    endloop
  endfacet
  facet normal 0.844846 0.53501 0
    outer loop
      vertex -5.40455 -3.61121 20
      vertex -5.57524 -3.34167 4
      vertex -5.57524 -3.34167 20
    endloop
  endfacet
  facet normal 0.844846 0.53501 0
    outer loop
      vertex -5.57524 -3.34167 4
      vertex -5.40455 -3.61121 20
      vertex -5.40455 -3.61121 4
    endloop
  endfacet
  facet normal 0.788359 0.615216 0
    outer loop
      vertex -5.02457 -4.12356 20
      vertex -5.22085 -3.87204 4
      vertex -5.22085 -3.87204 20
    endloop
  endfacet
  facet normal 0.788359 0.615216 0
    outer loop
      vertex -5.22085 -3.87204 4
      vertex -5.02457 -4.12356 20
      vertex -5.02457 -4.12356 4
    endloop
  endfacet
  facet normal 0.963777 0.266709 0
    outer loop
      vertex -6.22011 -1.88685 20
      vertex -6.3052 -1.57937 4
      vertex -6.3052 -1.57937 20
    endloop
  endfacet
  facet normal 0.963777 0.266709 0
    outer loop
      vertex -6.3052 -1.57937 4
      vertex -6.22011 -1.88685 20
      vertex -6.22011 -1.88685 4
    endloop
  endfacet
  facet normal 0.99729 0.0735653 0
    outer loop
      vertex -6.4687 -0.637111 20
      vertex -6.49217 -0.318939 4
      vertex -6.49217 -0.318939 20
    endloop
  endfacet
  facet normal 0.99729 0.0735653 0
    outer loop
      vertex -6.49217 -0.318939 4
      vertex -6.4687 -0.637111 20
      vertex -6.4687 -0.637111 4
    endloop
  endfacet
  facet normal 0 -1 0
    outer loop
      vertex 0 6.5 4
      vertex 11.5 6.5 20
      vertex 0 6.5 20
    endloop
  endfacet
  facet normal 0 -1 -0
    outer loop
      vertex 11.5 6.5 20
      vertex 0 6.5 4
      vertex 11.5 6.5 4
    endloop
  endfacet
  facet normal 0 1 -0
    outer loop
      vertex 11.5 -6.5 4
      vertex 0 -6.5 20
      vertex 11.5 -6.5 20
    endloop
  endfacet
  facet normal 0 1 0
    outer loop
      vertex 0 -6.5 20
      vertex 11.5 -6.5 4
      vertex 0 -6.5 4
    endloop
  endfacet
endsolid OpenSCAD_Model
